<svg xmlns="http://www.w3.org/2000/svg" xmlns:xlink="http://www.w3.org/1999/xlink" width="105" zoomAndPan="magnify" viewBox="0 0 105 127" height="127" preserveAspectRatio="xMidYMid meet" version="1.0"><defs><g/><clipPath id="c2a14d3b80"><path d="M 0 10.808594 L 104.28125 10.808594 L 104.28125 115.089844 L 0 115.089844 Z M 0 10.808594 " clip-rule="nonzero"/></clipPath><clipPath id="01d2c3fc65"><path d="M 52.1875 10.808594 C 23.363281 10.808594 0 34.171875 0 62.996094 C 0 91.816406 23.363281 115.183594 52.1875 115.183594 C 81.007812 115.183594 104.375 91.816406 104.375 62.996094 C 104.375 34.171875 81.007812 10.808594 52.1875 10.808594 Z M 52.1875 10.808594 " clip-rule="nonzero"/></clipPath><clipPath id="7e0addd240"><path d="M 22 46 L 82 46 L 82 77 L 22 77 Z M 22 46 " clip-rule="nonzero"/></clipPath><clipPath id="12dfe7615b"><path d="M 82.03125 31.179688 L 82.25 104.296875 L 22.320312 104.476562 L 22.101562 31.359375 Z M 82.03125 31.179688 " clip-rule="nonzero"/></clipPath><clipPath id="5b8958caeb"><path d="M 82.03125 31.179688 L 82.25 104.296875 L 22.320312 104.476562 L 22.101562 31.359375 Z M 82.03125 31.179688 " clip-rule="nonzero"/></clipPath><clipPath id="61cfc9e1b6"><path d="M 36 31 L 76 31 L 76 105 L 36 105 Z M 36 31 " clip-rule="nonzero"/></clipPath><clipPath id="4c35dde6d2"><path d="M 82.03125 31.179688 L 82.25 104.296875 L 22.320312 104.476562 L 22.101562 31.359375 Z M 82.03125 31.179688 " clip-rule="nonzero"/></clipPath><clipPath id="d0a42cd711"><path d="M 82.03125 31.179688 L 82.25 104.296875 L 22.320312 104.476562 L 22.101562 31.359375 Z M 82.03125 31.179688 " clip-rule="nonzero"/></clipPath><clipPath id="719725110c"><path d="M 38 46 L 66 46 L 66 76 L 38 76 Z M 38 46 " clip-rule="nonzero"/></clipPath><clipPath id="a0224fae44"><path d="M 82.03125 31.179688 L 82.25 104.296875 L 22.320312 104.476562 L 22.101562 31.359375 Z M 82.03125 31.179688 " clip-rule="nonzero"/></clipPath><clipPath id="3eb6f4da5c"><path d="M 82.03125 31.179688 L 82.25 104.296875 L 22.320312 104.476562 L 22.101562 31.359375 Z M 82.03125 31.179688 " clip-rule="nonzero"/></clipPath><clipPath id="c6bfcb524d"><path d="M 36 46 L 70 46 L 70 76 L 36 76 Z M 36 46 " clip-rule="nonzero"/></clipPath><clipPath id="7c5630833c"><path d="M 82.03125 31.179688 L 82.25 104.296875 L 22.320312 104.476562 L 22.101562 31.359375 Z M 82.03125 31.179688 " clip-rule="nonzero"/></clipPath><clipPath id="52daffc307"><path d="M 82.03125 31.179688 L 82.25 104.296875 L 22.320312 104.476562 L 22.101562 31.359375 Z M 82.03125 31.179688 " clip-rule="nonzero"/></clipPath><clipPath id="c62df472f8"><path d="M 37 45 L 69 45 L 69 77 L 37 77 Z M 37 45 " clip-rule="nonzero"/></clipPath><clipPath id="af54977fbe"><path d="M 82.03125 31.179688 L 82.25 104.296875 L 22.320312 104.476562 L 22.101562 31.359375 Z M 82.03125 31.179688 " clip-rule="nonzero"/></clipPath><clipPath id="ee9bee290f"><path d="M 82.03125 31.179688 L 82.25 104.296875 L 22.320312 104.476562 L 22.101562 31.359375 Z M 82.03125 31.179688 " clip-rule="nonzero"/></clipPath><clipPath id="373a10e70c"><path d="M 46.773438 19.054688 L 57.609375 19.054688 L 57.609375 29.890625 L 46.773438 29.890625 Z M 46.773438 19.054688 " clip-rule="nonzero"/></clipPath><clipPath id="7b759e2f60"><path d="M 52.191406 19.054688 C 49.199219 19.054688 46.773438 21.480469 46.773438 24.472656 C 46.773438 27.464844 49.199219 29.890625 52.191406 29.890625 C 55.183594 29.890625 57.609375 27.464844 57.609375 24.472656 C 57.609375 21.480469 55.183594 19.054688 52.191406 19.054688 Z M 52.191406 19.054688 " clip-rule="nonzero"/></clipPath><clipPath id="6a0ccaafaf"><path d="M 0.773438 0.0546875 L 11.609375 0.0546875 L 11.609375 10.890625 L 0.773438 10.890625 Z M 0.773438 0.0546875 " clip-rule="nonzero"/></clipPath><clipPath id="29e7fbc098"><path d="M 6.191406 0.0546875 C 3.199219 0.0546875 0.773438 2.480469 0.773438 5.472656 C 0.773438 8.464844 3.199219 10.890625 6.191406 10.890625 C 9.183594 10.890625 11.609375 8.464844 11.609375 5.472656 C 11.609375 2.480469 9.183594 0.0546875 6.191406 0.0546875 Z M 6.191406 0.0546875 " clip-rule="nonzero"/></clipPath><clipPath id="e467599af8"><rect x="0" width="12" y="0" height="11"/></clipPath><clipPath id="4286d58efa"><path d="M 83.457031 55.070312 L 94.289062 55.070312 L 94.289062 65.902344 L 83.457031 65.902344 Z M 83.457031 55.070312 " clip-rule="nonzero"/></clipPath><clipPath id="f9e6147448"><path d="M 88.871094 55.070312 C 85.878906 55.070312 83.457031 57.496094 83.457031 60.484375 C 83.457031 63.476562 85.878906 65.902344 88.871094 65.902344 C 91.863281 65.902344 94.289062 63.476562 94.289062 60.484375 C 94.289062 57.496094 91.863281 55.070312 88.871094 55.070312 Z M 88.871094 55.070312 " clip-rule="nonzero"/></clipPath><clipPath id="6a3f1c458a"><path d="M 0.457031 0.0703125 L 11.289062 0.0703125 L 11.289062 10.902344 L 0.457031 10.902344 Z M 0.457031 0.0703125 " clip-rule="nonzero"/></clipPath><clipPath id="ee0ff3c899"><path d="M 5.871094 0.0703125 C 2.878906 0.0703125 0.457031 2.496094 0.457031 5.484375 C 0.457031 8.476562 2.878906 10.902344 5.871094 10.902344 C 8.863281 10.902344 11.289062 8.476562 11.289062 5.484375 C 11.289062 2.496094 8.863281 0.0703125 5.871094 0.0703125 Z M 5.871094 0.0703125 " clip-rule="nonzero"/></clipPath><clipPath id="aecdfaea68"><rect x="0" width="12" y="0" height="11"/></clipPath><clipPath id="76a55d02a6"><path d="M 10.09375 57.03125 L 20.925781 57.03125 L 20.925781 67.863281 L 10.09375 67.863281 Z M 10.09375 57.03125 " clip-rule="nonzero"/></clipPath><clipPath id="f0c00c0c65"><path d="M 15.511719 57.03125 C 12.519531 57.03125 10.09375 59.457031 10.09375 62.449219 C 10.09375 65.441406 12.519531 67.863281 15.511719 67.863281 C 18.503906 67.863281 20.925781 65.441406 20.925781 62.449219 C 20.925781 59.457031 18.503906 57.03125 15.511719 57.03125 Z M 15.511719 57.03125 " clip-rule="nonzero"/></clipPath><clipPath id="415f5f8d29"><path d="M 0.09375 0.03125 L 10.925781 0.03125 L 10.925781 10.863281 L 0.09375 10.863281 Z M 0.09375 0.03125 " clip-rule="nonzero"/></clipPath><clipPath id="89fb88c125"><path d="M 5.511719 0.03125 C 2.519531 0.03125 0.09375 2.457031 0.09375 5.449219 C 0.09375 8.441406 2.519531 10.863281 5.511719 10.863281 C 8.503906 10.863281 10.925781 8.441406 10.925781 5.449219 C 10.925781 2.457031 8.503906 0.03125 5.511719 0.03125 Z M 5.511719 0.03125 " clip-rule="nonzero"/></clipPath><clipPath id="5ed358c40a"><rect x="0" width="11" y="0" height="11"/></clipPath><clipPath id="e8872684f1"><rect x="0" width="115" y="0" height="126"/></clipPath><clipPath id="96df7ace6f"><path d="M 152.953125 6.046875 L 260.988281 6.046875 L 260.988281 48.269531 L 152.953125 48.269531 Z M 152.953125 6.046875 " clip-rule="nonzero"/></clipPath><clipPath id="aa06e25799"><path d="M 157.453125 6.046875 L 256.386719 6.046875 C 258.871094 6.046875 260.886719 8.058594 260.886719 10.546875 L 260.886719 43.769531 C 260.886719 46.253906 258.871094 48.269531 256.386719 48.269531 L 157.453125 48.269531 C 154.96875 48.269531 152.953125 46.253906 152.953125 43.769531 L 152.953125 10.546875 C 152.953125 8.058594 154.96875 6.046875 157.453125 6.046875 Z M 157.453125 6.046875 " clip-rule="nonzero"/></clipPath><clipPath id="2aa36e61b3"><path d="M 0.953125 0.046875 L 108.921875 0.046875 L 108.921875 42.269531 L 0.953125 42.269531 Z M 0.953125 0.046875 " clip-rule="nonzero"/></clipPath><clipPath id="e71bd4b052"><path d="M 5.453125 0.046875 L 104.386719 0.046875 C 106.871094 0.046875 108.886719 2.058594 108.886719 4.546875 L 108.886719 37.769531 C 108.886719 40.253906 106.871094 42.269531 104.386719 42.269531 L 5.453125 42.269531 C 2.96875 42.269531 0.953125 40.253906 0.953125 37.769531 L 0.953125 4.546875 C 0.953125 2.058594 2.96875 0.046875 5.453125 0.046875 Z M 5.453125 0.046875 " clip-rule="nonzero"/></clipPath><clipPath id="dcbeffb590"><rect x="0" width="109" y="0" height="43"/></clipPath><clipPath id="ab53b9c4eb"><rect x="0" width="265" y="0" height="70"/></clipPath></defs><g transform="matrix(1, 0, 0, 1, 0, 12)"><g clip-path="url(#e8872684f1)"><g clip-path="url(#c2a14d3b80)"><g clip-path="url(#01d2c3fc65)"><path stroke-linecap="butt" transform="matrix(0.599307, 0, 0, 0.599307, 0.000003125, 10.808757)" fill="none" stroke-linejoin="miter" d="M 87.079667 -0.000272113 C 38.983791 -0.000272113 -0.00000521435 38.983524 -0.00000521435 87.0794 C -0.00000521435 135.168758 38.983791 174.159072 87.079667 174.159072 C 135.169025 174.159072 174.159339 135.168758 174.159339 87.0794 C 174.159339 38.983524 135.169025 -0.000272113 87.079667 -0.000272113 Z M 87.079667 -0.000272113 " stroke="#068276" stroke-width="7.508667" stroke-opacity="1" stroke-miterlimit="4"/></g></g><g clip-path="url(#7e0addd240)"><g clip-path="url(#12dfe7615b)"><g clip-path="url(#5b8958caeb)"><path fill="#068276" d="M 68.339844 71.972656 L 71.183594 71.960938 C 74.144531 71.953125 77.015625 70.714844 79.054688 68.566406 C 81.085938 66.425781 82.125 63.636719 81.980469 60.714844 C 81.695312 54.996094 76.980469 50.527344 71.25 50.546875 L 66.949219 50.558594 C 66.949219 50.558594 60.351562 51.175781 60.183594 47.226562 C 60.269531 50.515625 62.976562 53.160156 66.285156 53.148438 L 71.257812 53.132812 C 75.605469 53.121094 79.175781 56.507812 79.394531 60.84375 C 79.503906 63.054688 78.714844 65.160156 77.175781 66.785156 C 75.621094 68.421875 73.433594 69.367188 71.175781 69.375 L 68.332031 69.382812 C 68.285156 69.382812 68.234375 69.382812 68.1875 69.386719 C 64.242188 69.558594 64.855469 76.148438 64.855469 76.148438 L 64.855469 75.480469 C 64.847656 73.550781 66.414062 71.976562 68.339844 71.972656 M 41.351562 46.484375 C 41.351562 46.484375 41.925781 52.621094 38.425781 53.207031 C 38.242188 53.226562 38.058594 53.234375 37.875 53.234375 L 33.03125 53.25 C 30.769531 53.257812 28.585938 54.199219 27.027344 55.839844 C 25.488281 57.460938 24.703125 59.574219 24.8125 61.78125 C 25.027344 66.117188 28.601562 69.5 32.945312 69.488281 L 37.921875 69.472656 C 41.226562 69.464844 43.9375 72.105469 44.023438 75.394531 C 43.851562 71.449219 37.257812 72.066406 37.257812 72.066406 L 32.953125 72.078125 C 27.222656 72.09375 22.511719 67.628906 22.226562 61.910156 C 22.21875 61.738281 22.214844 61.570312 22.214844 61.402344 C 22.207031 58.664062 23.238281 56.074219 25.152344 54.058594 C 27.191406 51.90625 30.058594 50.667969 33.023438 50.660156 L 37.867188 50.644531 C 39.792969 50.640625 41.359375 49.066406 41.351562 47.136719 L 41.351562 46.484375 " fill-opacity="1" fill-rule="nonzero"/></g></g></g><g clip-path="url(#61cfc9e1b6)"><g clip-path="url(#4c35dde6d2)"><g clip-path="url(#d0a42cd711)"><path fill="#00a79d" d="M 42.542969 90.714844 C 41.011719 90.71875 39.765625 89.480469 39.761719 87.949219 C 39.757812 86.414062 40.996094 85.171875 42.527344 85.164062 C 44.058594 85.160156 45.304688 86.398438 45.308594 87.929688 C 45.3125 89.464844 44.074219 90.707031 42.542969 90.714844 M 43.941406 47.128906 C 43.949219 50.300781 41.523438 52.921875 38.425781 53.207031 C 41.925781 52.621094 41.351562 46.484375 41.351562 46.484375 L 41.335938 42.296875 C 41.328125 39.332031 42.550781 36.457031 44.6875 34.402344 C 46.816406 32.359375 49.597656 31.304688 52.519531 31.433594 C 58.242188 31.683594 62.734375 36.367188 62.753906 42.097656 L 62.769531 47.074219 C 62.773438 49.003906 64.347656 50.566406 66.277344 50.558594 L 66.949219 50.558594 C 66.949219 50.558594 60.351562 51.175781 60.183594 47.226562 C 60.179688 47.179688 60.179688 47.132812 60.179688 47.082031 L 60.164062 42.105469 C 60.152344 37.761719 56.746094 34.210938 52.40625 34.019531 C 50.199219 33.921875 48.09375 34.722656 46.480469 36.269531 C 44.851562 37.835938 43.917969 40.027344 43.925781 42.289062 L 43.941406 47.128906 M 59.523438 104.398438 L 58.871094 104.398438 C 58.199219 104.402344 57.648438 103.894531 57.578125 103.242188 C 55.980469 102.738281 54.558594 101.734375 53.554688 100.359375 C 52.5625 99.003906 52.03125 97.363281 52.027344 95.703125 C 52.027344 95.1875 52.074219 94.667969 52.175781 94.15625 C 52.542969 92.308594 52.992188 90.636719 53.527344 89.136719 C 53.28125 88.894531 53.140625 88.558594 53.136719 88.214844 C 53.136719 88.050781 53.167969 87.882812 53.238281 87.71875 C 53.949219 85.992188 54.792969 84.507812 55.738281 83.308594 C 55.75 83.292969 55.761719 83.277344 55.773438 83.265625 C 57.519531 81.242188 59.789062 79.980469 62.277344 79.628906 L 62.265625 75.488281 C 62.257812 72.179688 64.898438 69.472656 68.1875 69.386719 C 64.242188 69.558594 64.855469 76.148438 64.855469 76.148438 L 64.867188 79.59375 C 67.445312 79.882812 69.808594 81.140625 71.617188 83.214844 C 71.632812 83.230469 71.644531 83.246094 71.65625 83.261719 C 72.609375 84.457031 73.460938 85.933594 74.183594 87.65625 C 74.390625 88.15625 74.265625 88.714844 73.902344 89.074219 C 74.441406 90.570312 74.90625 92.242188 75.28125 94.085938 C 75.722656 96.246094 75.234375 98.511719 73.941406 100.300781 C 72.90625 101.730469 71.425781 102.765625 69.757812 103.257812 C 69.667969 103.886719 69.132812 104.367188 68.480469 104.371094 L 67.828125 104.375 C 67.109375 104.375 66.527344 103.796875 66.527344 103.078125 C 66.523438 102.363281 67.101562 101.78125 67.820312 101.78125 L 68.472656 101.777344 C 68.917969 101.777344 69.308594 102 69.542969 102.339844 C 70.992188 101.898438 72.277344 100.992188 73.175781 99.75 C 74.316406 98.171875 74.75 96.175781 74.359375 94.273438 C 73.996094 92.496094 73.554688 90.886719 73.035156 89.449219 C 72.511719 89.46875 72.011719 89.167969 71.796875 88.65625 C 71.171875 87.167969 70.449219 85.902344 69.652344 84.898438 C 68.070312 83.097656 65.953125 82.113281 63.691406 82.117188 C 61.429688 82.125 59.320312 83.125 57.75 84.933594 C 56.960938 85.941406 56.246094 87.210938 55.628906 88.707031 C 55.417969 89.21875 54.914062 89.519531 54.394531 89.503906 C 53.882812 90.949219 53.453125 92.558594 53.101562 94.339844 C 52.722656 96.242188 53.164062 98.234375 54.316406 99.804688 C 55.195312 101.003906 56.429688 101.882812 57.828125 102.332031 C 58.0625 102.015625 58.4375 101.808594 58.863281 101.804688 L 59.515625 101.804688 C 60.234375 101.800781 60.816406 102.382812 60.816406 103.097656 C 60.820312 103.8125 60.242188 104.394531 59.523438 104.398438 M 38.78125 87.953125 C 38.777344 85.847656 40.484375 84.132812 42.585938 84.125 C 44.691406 84.121094 46.40625 85.828125 46.414062 87.929688 C 46.421875 90.035156 44.714844 91.75 42.609375 91.757812 C 40.507812 91.765625 38.789062 90.058594 38.78125 87.953125 M 48.207031 87.925781 C 48.199219 85.339844 46.433594 83.164062 44.046875 82.523438 L 44.027344 75.539062 C 44.027344 75.492188 44.023438 75.441406 44.023438 75.394531 C 43.851562 71.445312 37.257812 72.0625 37.257812 72.0625 L 37.929688 72.0625 C 39.859375 72.054688 41.429688 73.621094 41.4375 75.546875 L 41.457031 82.449219 C 38.902344 82.976562 36.980469 85.25 36.988281 87.957031 C 37 91.050781 39.523438 93.5625 42.617188 93.550781 C 45.707031 93.542969 48.21875 91.019531 48.207031 87.925781 " fill-opacity="1" fill-rule="nonzero"/></g></g></g><g clip-path="url(#719725110c)"><g clip-path="url(#a0224fae44)"><g clip-path="url(#3eb6f4da5c)"><path fill="#cccccc" d="M 38.035156 72.0625 C 38.367188 72.070312 38.691406 72.128906 38.996094 72.222656 C 38.984375 72.222656 38.976562 72.21875 38.96875 72.21875 L 38.964844 72.214844 C 38.679688 72.128906 38.375 72.078125 38.066406 72.066406 C 38.054688 72.066406 38.042969 72.0625 38.035156 72.0625 M 41.171875 48.253906 C 41.179688 48.222656 41.1875 48.1875 41.195312 48.152344 L 41.199219 48.152344 C 41.285156 47.863281 41.335938 47.5625 41.347656 47.25 C 41.347656 47.242188 41.351562 47.234375 41.351562 47.226562 C 41.34375 47.585938 41.28125 47.929688 41.171875 48.253906 M 41.375 46.894531 C 41.378906 46.996094 41.382812 47.117188 41.386719 47.25 C 41.382812 47.117188 41.378906 46.996094 41.375 46.894531 M 64.855469 75.398438 C 64.863281 75.046875 64.921875 74.710938 65.023438 74.390625 C 65.019531 74.410156 65.015625 74.425781 65.011719 74.441406 L 65.011719 74.445312 C 64.921875 74.730469 64.871094 75.03125 64.859375 75.34375 C 64.859375 75.363281 64.855469 75.378906 64.855469 75.398438 " fill-opacity="1" fill-rule="nonzero"/></g></g></g><g clip-path="url(#c6bfcb524d)"><g clip-path="url(#7c5630833c)"><g clip-path="url(#52daffc307)"><path fill="#00a79d" d="M 36.746094 53.214844 C 38.925781 52.398438 40.601562 50.542969 41.171875 48.253906 C 41.28125 47.929688 41.34375 47.585938 41.351562 47.226562 C 41.363281 47.117188 41.371094 47.003906 41.375 46.894531 C 41.378906 46.996094 41.382812 47.117188 41.386719 47.25 C 41.386719 47.285156 41.386719 47.324219 41.386719 47.359375 C 41.390625 49.085938 41.082031 52.738281 38.425781 53.183594 C 38.242188 53.199219 38.058594 53.210938 37.875 53.210938 L 36.746094 53.214844 M 38.730469 72.039062 C 40.582031 72.105469 43.59375 72.59375 43.996094 74.992188 C 44.007812 75.089844 44.011719 75.1875 44.019531 75.285156 C 43.820312 72.636719 40.65625 72.113281 38.730469 72.039062 M 60.1875 47.296875 C 60.375 50.261719 64.242188 50.597656 66.042969 50.59375 C 66.179688 50.59375 66.304688 50.589844 66.417969 50.585938 C 66.445312 50.589844 66.476562 50.589844 66.507812 50.59375 C 65.109375 50.644531 60.703125 50.578125 60.207031 47.640625 C 60.199219 47.527344 60.191406 47.410156 60.1875 47.296875 M 64.824219 75.234375 C 64.820312 74.757812 64.84375 74.132812 64.933594 73.472656 C 65.179688 71.65625 65.933594 69.554688 68.074219 69.390625 C 68.160156 69.386719 68.25 69.386719 68.335938 69.386719 L 69.460938 69.382812 C 67.265625 70.207031 65.582031 72.078125 65.023438 74.390625 C 64.921875 74.710938 64.863281 75.046875 64.855469 75.398438 C 64.84375 75.5 64.839844 75.605469 64.832031 75.710938 C 64.828125 75.578125 64.824219 75.417969 64.824219 75.234375 " fill-opacity="1" fill-rule="nonzero"/></g></g></g><g clip-path="url(#c62df472f8)"><g clip-path="url(#af54977fbe)"><g clip-path="url(#ee9bee290f)"><path fill="#00867e" d="M 37.699219 72.039062 C 37.957031 72.03125 38.3125 72.023438 38.730469 72.039062 C 40.65625 72.113281 43.820312 72.636719 44.019531 75.285156 C 44.023438 75.371094 44.023438 75.457031 44.023438 75.542969 L 44.027344 76.667969 C 43.203125 74.464844 41.316406 72.777344 38.996094 72.222656 C 38.691406 72.128906 38.367188 72.070312 38.035156 72.0625 C 37.921875 72.050781 37.8125 72.042969 37.699219 72.039062 M 41.375 46.894531 C 41.375 46.890625 41.375 46.886719 41.375 46.886719 C 41.378906 46.992188 41.382812 47.113281 41.386719 47.25 C 41.382812 47.117188 41.378906 46.996094 41.375 46.894531 M 60.183594 47.089844 L 60.179688 45.964844 C 61.007812 48.175781 62.90625 49.867188 65.238281 50.414062 L 65.242188 50.414062 C 65.527344 50.5 65.828125 50.554688 66.140625 50.566406 C 66.234375 50.574219 66.324219 50.582031 66.417969 50.585938 C 66.304688 50.589844 66.179688 50.59375 66.042969 50.59375 C 64.242188 50.597656 60.375 50.261719 60.1875 47.296875 C 60.183594 47.226562 60.183594 47.160156 60.183594 47.089844 M 64.933594 73.472656 C 65.167969 71.738281 65.859375 69.734375 67.785156 69.410156 C 67.882812 69.402344 67.976562 69.394531 68.074219 69.390625 C 65.933594 69.554688 65.179688 71.65625 64.933594 73.472656 " fill-opacity="1" fill-rule="nonzero"/></g></g></g><g clip-path="url(#373a10e70c)"><g clip-path="url(#7b759e2f60)"><g transform="matrix(1, 0, 0, 1, 46, 19)"><g clip-path="url(#e467599af8)"><g clip-path="url(#6a0ccaafaf)"><g clip-path="url(#29e7fbc098)"><path fill="#00a79d" d="M 0.773438 0.0546875 L 11.609375 0.0546875 L 11.609375 10.890625 L 0.773438 10.890625 Z M 0.773438 0.0546875 " fill-opacity="1" fill-rule="nonzero"/></g></g></g></g></g></g><g clip-path="url(#4286d58efa)"><g clip-path="url(#f9e6147448)"><g transform="matrix(1, 0, 0, 1, 83, 55)"><g clip-path="url(#aecdfaea68)"><g clip-path="url(#6a3f1c458a)"><g clip-path="url(#ee0ff3c899)"><path fill="#05685e" d="M 0.457031 0.0703125 L 11.289062 0.0703125 L 11.289062 10.902344 L 0.457031 10.902344 Z M 0.457031 0.0703125 " fill-opacity="1" fill-rule="nonzero"/></g></g></g></g></g></g><g clip-path="url(#76a55d02a6)"><g clip-path="url(#f0c00c0c65)"><g transform="matrix(1, 0, 0, 1, 10, 57)"><g clip-path="url(#5ed358c40a)"><g clip-path="url(#415f5f8d29)"><g clip-path="url(#89fb88c125)"><path fill="#05685e" d="M 0.09375 0.03125 L 10.925781 0.03125 L 10.925781 10.863281 L 0.09375 10.863281 Z M 0.09375 0.03125 " fill-opacity="1" fill-rule="nonzero"/></g></g></g></g></g></g></g></g><g transform="matrix(1, 0, 0, 1, 107, 40)" display="none"><g clip-path="url(#ab53b9c4eb)"><g clip-path="url(#96df7ace6f)"><g clip-path="url(#aa06e25799)"><g transform="matrix(1, 0, 0, 1, 152, 6)"><g clip-path="url(#dcbeffb590)"><g clip-path="url(#2aa36e61b3)"><g clip-path="url(#e71bd4b052)"><path fill="#00a79d" d="M 0.953125 0.046875 L 108.820312 0.046875 L 108.820312 42.269531 L 0.953125 42.269531 Z M 0.953125 0.046875 " fill-opacity="1" fill-rule="nonzero"/></g></g></g></g></g></g><g fill="#05685e" fill-opacity="1"><g transform="translate(0.670821, 43.205462)"><g><path d="M 3.5625 -32.640625 C 3.5625 -33.148438 3.785156 -33.40625 4.234375 -33.40625 L 9.59375 -33.40625 C 10.007812 -33.40625 10.21875 -33.164062 10.21875 -32.6875 L 10.21875 -5.5 C 10.21875 -5.28125 10.253906 -5.132812 10.328125 -5.0625 C 10.410156 -4.988281 10.539062 -4.953125 10.71875 -4.953125 L 25.484375 -4.953125 C 25.960938 -4.953125 26.203125 -4.742188 26.203125 -4.328125 L 26.203125 -0.671875 C 26.203125 -0.492188 26.140625 -0.335938 26.015625 -0.203125 C 25.898438 -0.0664062 25.707031 0 25.4375 0 L 4.40625 0 C 4.082031 0 3.859375 -0.0664062 3.734375 -0.203125 C 3.617188 -0.335938 3.5625 -0.539062 3.5625 -0.8125 Z M 3.5625 -32.640625 "/></g></g></g><g fill="#05685e" fill-opacity="1"><g transform="translate(36.02323, 43.205462)"><g><path d="M 8.78125 -28.28125 C 8.78125 -27.914062 8.695312 -27.648438 8.53125 -27.484375 C 8.363281 -27.328125 8.085938 -27.25 7.703125 -27.25 L 3.609375 -27.25 C 3.273438 -27.25 3.046875 -27.320312 2.921875 -27.46875 C 2.804688 -27.613281 2.75 -27.835938 2.75 -28.140625 L 2.75 -32.5625 C 2.75 -33.125 2.988281 -33.40625 3.46875 -33.40625 L 8.109375 -33.40625 C 8.316406 -33.40625 8.476562 -33.335938 8.59375 -33.203125 C 8.71875 -33.078125 8.78125 -32.890625 8.78125 -32.640625 Z M 8.6875 -0.984375 C 8.6875 -0.628906 8.601562 -0.375 8.4375 -0.21875 C 8.28125 -0.0703125 8.003906 0 7.609375 0 L 3.6875 0 C 3.363281 0 3.140625 -0.0546875 3.015625 -0.171875 C 2.898438 -0.296875 2.84375 -0.507812 2.84375 -0.8125 L 2.84375 -23.09375 C 2.84375 -23.601562 3.066406 -23.859375 3.515625 -23.859375 L 8.0625 -23.859375 C 8.476562 -23.859375 8.6875 -23.617188 8.6875 -23.140625 Z M 8.6875 -0.984375 "/></g></g></g><g fill="#05685e" fill-opacity="1"><g transform="translate(55.028278, 43.205462)"><g><path d="M 3.640625 0 C 3.347656 0 3.140625 -0.0546875 3.015625 -0.171875 C 2.898438 -0.296875 2.84375 -0.507812 2.84375 -0.8125 L 2.84375 -23.09375 C 2.84375 -23.601562 3.050781 -23.859375 3.46875 -23.859375 L 7.96875 -23.859375 C 8.363281 -23.859375 8.5625 -23.632812 8.5625 -23.1875 L 8.5625 -20.84375 C 8.5625 -20.664062 8.601562 -20.5625 8.6875 -20.53125 C 8.78125 -20.5 8.898438 -20.546875 9.046875 -20.671875 C 10.460938 -21.898438 11.773438 -22.8125 12.984375 -23.40625 C 14.203125 -24.007812 15.519531 -24.3125 16.9375 -24.3125 C 19.15625 -24.3125 20.898438 -23.671875 22.171875 -22.390625 C 23.453125 -21.117188 24.09375 -19.4375 24.09375 -17.34375 L 24.09375 -0.953125 C 24.09375 -0.316406 23.773438 0 23.140625 0 L 19 0 C 18.695312 0 18.492188 -0.0546875 18.390625 -0.171875 C 18.285156 -0.296875 18.234375 -0.507812 18.234375 -0.8125 L 18.234375 -16.296875 C 18.234375 -17.472656 17.910156 -18.382812 17.265625 -19.03125 C 16.617188 -19.675781 15.679688 -20 14.453125 -20 C 13.398438 -20 12.445312 -19.753906 11.59375 -19.265625 C 10.738281 -18.785156 9.769531 -18.007812 8.6875 -16.9375 L 8.6875 -0.90625 C 8.6875 -0.570312 8.609375 -0.335938 8.453125 -0.203125 C 8.304688 -0.0664062 8.039062 0 7.65625 0 Z M 3.640625 0 "/></g></g></g><g fill="#05685e" fill-opacity="1"><g transform="translate(89.164774, 43.205462)"><g><path d="M 25.484375 -0.953125 C 25.578125 -0.828125 25.625 -0.691406 25.625 -0.546875 C 25.625 -0.179688 25.398438 0 24.953125 0 L 20 0 C 19.507812 0 19.144531 -0.269531 18.90625 -0.8125 L 13.515625 -10.890625 C 13.421875 -11.140625 13.3125 -11.265625 13.1875 -11.265625 C 13.101562 -11.265625 12.984375 -11.1875 12.828125 -11.03125 L 9.09375 -7.34375 C 8.820312 -7.132812 8.6875 -6.785156 8.6875 -6.296875 L 8.6875 -0.984375 C 8.6875 -0.597656 8.609375 -0.335938 8.453125 -0.203125 C 8.304688 -0.0664062 8.039062 0 7.65625 0 L 3.734375 0 C 3.410156 0 3.179688 -0.0546875 3.046875 -0.171875 C 2.910156 -0.296875 2.84375 -0.507812 2.84375 -0.8125 L 2.84375 -32.640625 C 2.84375 -33.148438 3.066406 -33.40625 3.515625 -33.40625 L 8.0625 -33.40625 C 8.476562 -33.40625 8.6875 -33.164062 8.6875 -32.6875 L 8.6875 -13.375 C 8.6875 -13.132812 8.75 -13.015625 8.875 -13.015625 C 8.988281 -13.015625 9.109375 -13.085938 9.234375 -13.234375 L 18.59375 -23.234375 C 19.019531 -23.648438 19.394531 -23.859375 19.71875 -23.859375 L 23.828125 -23.859375 C 24.273438 -23.859375 24.5 -23.710938 24.5 -23.421875 C 24.5 -23.265625 24.410156 -23.066406 24.234375 -22.828125 L 17.609375 -16.171875 C 17.453125 -15.953125 17.375 -15.769531 17.375 -15.625 C 17.375 -15.476562 17.4375 -15.285156 17.5625 -15.046875 Z M 25.484375 -0.953125 "/></g></g></g><g fill="#05685e" fill-opacity="1"><g transform="translate(123.2112, 43.205462)"><g><path d="M 7.703125 -10.09375 C 7.703125 -8.851562 7.984375 -7.742188 8.546875 -6.765625 C 9.117188 -5.796875 9.90625 -5.03125 10.90625 -4.46875 C 11.914062 -3.914062 13.023438 -3.640625 14.234375 -3.640625 C 15.460938 -3.640625 16.578125 -3.898438 17.578125 -4.421875 C 18.585938 -4.953125 19.539062 -5.773438 20.4375 -6.890625 C 20.59375 -7.035156 20.710938 -7.109375 20.796875 -7.109375 C 20.890625 -7.109375 21.023438 -7.066406 21.203125 -6.984375 L 23.953125 -5.765625 C 24.160156 -5.671875 24.265625 -5.535156 24.265625 -5.359375 C 24.265625 -5.265625 24.207031 -5.128906 24.09375 -4.953125 C 22.738281 -3.003906 21.242188 -1.613281 19.609375 -0.78125 C 17.972656 0.0390625 15.953125 0.453125 13.546875 0.453125 C 11.265625 0.453125 9.21875 -0.0546875 7.40625 -1.078125 C 5.59375 -2.097656 4.175781 -3.523438 3.15625 -5.359375 C 2.132812 -7.191406 1.625 -9.28125 1.625 -11.625 C 1.625 -14.144531 2.144531 -16.363281 3.1875 -18.28125 C 4.238281 -20.207031 5.664062 -21.691406 7.46875 -22.734375 C 9.269531 -23.785156 11.269531 -24.3125 13.46875 -24.3125 C 15.71875 -24.3125 17.703125 -23.816406 19.421875 -22.828125 C 21.148438 -21.835938 22.488281 -20.40625 23.4375 -18.53125 C 24.382812 -16.65625 24.859375 -14.425781 24.859375 -11.84375 L 24.859375 -11.65625 C 24.859375 -11.363281 24.8125 -11.15625 24.71875 -11.03125 C 24.632812 -10.914062 24.441406 -10.84375 24.140625 -10.8125 L 8.203125 -10.8125 C 7.867188 -10.8125 7.703125 -10.570312 7.703125 -10.09375 Z M 18.375 -14.140625 C 18.675781 -14.140625 18.878906 -14.175781 18.984375 -14.25 C 19.085938 -14.320312 19.140625 -14.492188 19.140625 -14.765625 C 19.140625 -15.734375 18.925781 -16.664062 18.5 -17.5625 C 18.082031 -18.457031 17.460938 -19.191406 16.640625 -19.765625 C 15.816406 -20.335938 14.832031 -20.625 13.6875 -20.625 C 11.914062 -20.625 10.484375 -20 9.390625 -18.75 C 8.296875 -17.507812 7.765625 -15.972656 7.796875 -14.140625 Z M 18.375 -14.140625 "/></g></g></g><g fill="#ffffff" fill-opacity="1"><g transform="translate(156.990574, 43.205462)"><g><path d="M 4.40625 -33.40625 C 8.707031 -33.40625 11.726562 -33.394531 13.46875 -33.375 C 25.207031 -33.101562 31.078125 -27.59375 31.078125 -16.84375 C 31.078125 -11.46875 29.566406 -7.316406 26.546875 -4.390625 C 23.523438 -1.460938 19.0625 0 13.15625 0 L 4.453125 0 C 3.859375 0 3.5625 -0.316406 3.5625 -0.953125 L 3.5625 -32.609375 C 3.5625 -32.898438 3.617188 -33.101562 3.734375 -33.21875 C 3.859375 -33.34375 4.082031 -33.40625 4.40625 -33.40625 Z M 10.625 -28.640625 C 10.351562 -28.640625 10.21875 -28.429688 10.21875 -28.015625 L 10.21875 -5.3125 C 10.21875 -5.101562 10.265625 -4.957031 10.359375 -4.875 C 10.453125 -4.800781 10.601562 -4.765625 10.8125 -4.765625 L 11.9375 -4.765625 C 16.164062 -4.765625 19.25 -5.695312 21.1875 -7.5625 C 23.125 -9.425781 24.09375 -12.519531 24.09375 -16.84375 C 24.09375 -19.632812 23.703125 -21.863281 22.921875 -23.53125 C 22.140625 -25.195312 20.972656 -26.421875 19.421875 -27.203125 C 17.878906 -27.984375 15.863281 -28.429688 13.375 -28.546875 Z M 10.625 -28.640625 "/></g></g></g><g fill="#ffffff" fill-opacity="1"><g transform="translate(197.837143, 43.205462)"><g><path d="M 13.46875 0.453125 C 11.15625 0.453125 9.097656 -0.0625 7.296875 -1.09375 C 5.492188 -2.132812 4.097656 -3.582031 3.109375 -5.4375 C 2.117188 -7.300781 1.625 -9.421875 1.625 -11.796875 C 1.625 -14.234375 2.132812 -16.40625 3.15625 -18.3125 C 4.175781 -20.21875 5.585938 -21.691406 7.390625 -22.734375 C 9.191406 -23.785156 11.234375 -24.3125 13.515625 -24.3125 C 15.828125 -24.3125 17.878906 -23.78125 19.671875 -22.71875 C 21.472656 -21.65625 22.867188 -20.175781 23.859375 -18.28125 C 24.859375 -16.394531 25.359375 -14.25 25.359375 -11.84375 C 25.359375 -9.46875 24.851562 -7.347656 23.84375 -5.484375 C 22.832031 -3.628906 21.425781 -2.175781 19.625 -1.125 C 17.832031 -0.0703125 15.78125 0.453125 13.46875 0.453125 Z M 13.515625 -3.5625 C 15.429688 -3.5625 16.890625 -4.28125 17.890625 -5.71875 C 18.898438 -7.15625 19.40625 -9.226562 19.40625 -11.9375 C 19.40625 -14.664062 18.894531 -16.765625 17.875 -18.234375 C 16.851562 -19.703125 15.398438 -20.4375 13.515625 -20.4375 C 11.617188 -20.4375 10.148438 -19.703125 9.109375 -18.234375 C 8.078125 -16.765625 7.5625 -14.664062 7.5625 -11.9375 C 7.5625 -9.226562 8.078125 -7.15625 9.109375 -5.71875 C 10.148438 -4.28125 11.617188 -3.5625 13.515625 -3.5625 Z M 13.515625 -3.5625 "/></g></g></g><g fill="#ffffff" fill-opacity="1"><g transform="translate(232.288873, 43.205462)"><g><path d="M 13.375 -24.3125 C 15.894531 -24.3125 17.992188 -23.695312 19.671875 -22.46875 C 21.359375 -21.238281 22.5625 -19.722656 23.28125 -17.921875 L 23.375 -17.515625 C 23.375 -17.273438 23.191406 -17.125 22.828125 -17.0625 L 18.875 -16.578125 L 18.6875 -16.53125 C 18.476562 -16.53125 18.328125 -16.679688 18.234375 -16.984375 C 17.515625 -18.148438 16.832031 -19.007812 16.1875 -19.5625 C 15.539062 -20.125 14.675781 -20.40625 13.59375 -20.40625 C 11.738281 -20.40625 10.269531 -19.664062 9.1875 -18.1875 C 8.101562 -16.71875 7.5625 -14.632812 7.5625 -11.9375 C 7.5625 -9.175781 8.113281 -7.066406 9.21875 -5.609375 C 10.332031 -4.148438 11.882812 -3.421875 13.875 -3.421875 C 15.164062 -3.421875 16.242188 -3.75 17.109375 -4.40625 C 17.984375 -5.070312 18.828125 -6.082031 19.640625 -7.4375 C 19.722656 -7.550781 19.816406 -7.625 19.921875 -7.65625 C 20.023438 -7.6875 20.171875 -7.671875 20.359375 -7.609375 L 23.1875 -6.84375 C 23.488281 -6.75 23.582031 -6.492188 23.46875 -6.078125 C 22.707031 -4.335938 21.488281 -2.8125 19.8125 -1.5 C 18.132812 -0.195312 15.988281 0.453125 13.375 0.453125 C 11.125 0.453125 9.101562 -0.0625 7.3125 -1.09375 C 5.53125 -2.132812 4.132812 -3.582031 3.125 -5.4375 C 2.125 -7.300781 1.625 -9.4375 1.625 -11.84375 C 1.625 -14.269531 2.132812 -16.429688 3.15625 -18.328125 C 4.175781 -20.222656 5.578125 -21.691406 7.359375 -22.734375 C 9.148438 -23.785156 11.15625 -24.3125 13.375 -24.3125 Z M 13.375 -24.3125 "/></g></g></g><g fill="#000000" fill-opacity="1"><g transform="translate(0.495269, 65.302434)"><g><path d="M 0.609375 -10.703125 C 0.609375 -10.804688 0.671875 -10.859375 0.796875 -10.859375 L 8.671875 -10.859375 C 8.785156 -10.859375 8.84375 -10.804688 8.84375 -10.703125 L 8.84375 -9.9375 C 8.84375 -9.882812 8.828125 -9.847656 8.796875 -9.828125 C 8.765625 -9.804688 8.722656 -9.796875 8.671875 -9.796875 L 5.6875 -9.796875 C 5.632812 -9.796875 5.59375 -9.785156 5.5625 -9.765625 C 5.539062 -9.742188 5.53125 -9.703125 5.53125 -9.640625 L 5.53125 -0.1875 C 5.53125 -0.0625 5.472656 0 5.359375 0 L 4.296875 0 C 4.179688 0 4.125 -0.0625 4.125 -0.1875 L 4.125 -9.640625 C 4.125 -9.703125 4.113281 -9.742188 4.09375 -9.765625 C 4.070312 -9.785156 4.035156 -9.796875 3.984375 -9.796875 L 0.796875 -9.796875 C 0.734375 -9.796875 0.6875 -9.804688 0.65625 -9.828125 C 0.625 -9.847656 0.609375 -9.882812 0.609375 -9.9375 Z M 0.609375 -10.703125 "/></g></g></g><g fill="#000000" fill-opacity="1"><g transform="translate(9.933578, 65.302434)"><g><path d="M 1.328125 0 C 1.191406 0 1.125 -0.0625 1.125 -0.1875 L 1.125 -7.5625 C 1.125 -7.695312 1.175781 -7.765625 1.28125 -7.765625 L 2.140625 -7.765625 C 2.242188 -7.765625 2.296875 -7.707031 2.296875 -7.59375 L 2.296875 -6.640625 C 2.296875 -6.585938 2.3125 -6.554688 2.34375 -6.546875 C 2.382812 -6.535156 2.421875 -6.554688 2.453125 -6.609375 C 3.203125 -7.472656 3.960938 -7.90625 4.734375 -7.90625 C 5.066406 -7.90625 5.234375 -7.84375 5.234375 -7.71875 L 5.234375 -6.84375 C 5.234375 -6.738281 5.191406 -6.695312 5.109375 -6.71875 C 4.929688 -6.75 4.710938 -6.765625 4.453125 -6.765625 C 4.171875 -6.765625 3.863281 -6.679688 3.53125 -6.515625 C 3.195312 -6.347656 2.914062 -6.128906 2.6875 -5.859375 C 2.46875 -5.597656 2.359375 -5.332031 2.359375 -5.0625 L 2.359375 -0.21875 C 2.359375 -0.0703125 2.285156 0 2.140625 0 Z M 1.328125 0 "/></g></g></g><g fill="#000000" fill-opacity="1"><g transform="translate(15.538026, 65.302434)"><g><path d="M 5.640625 -0.9375 C 4.890625 -0.21875 4.019531 0.140625 3.03125 0.140625 C 2.269531 0.140625 1.671875 -0.0507812 1.234375 -0.4375 C 0.796875 -0.820312 0.578125 -1.332031 0.578125 -1.96875 C 0.578125 -2.75 0.90625 -3.363281 1.5625 -3.8125 C 2.226562 -4.269531 3.1875 -4.535156 4.4375 -4.609375 L 5.578125 -4.703125 C 5.742188 -4.722656 5.828125 -4.796875 5.828125 -4.921875 L 5.828125 -5.3125 C 5.828125 -5.84375 5.660156 -6.257812 5.328125 -6.5625 C 5.003906 -6.875 4.566406 -7.03125 4.015625 -7.03125 C 3.148438 -7.03125 2.445312 -6.640625 1.90625 -5.859375 C 1.875 -5.804688 1.84375 -5.769531 1.8125 -5.75 C 1.78125 -5.738281 1.742188 -5.742188 1.703125 -5.765625 L 0.90625 -6.03125 C 0.851562 -6.050781 0.828125 -6.085938 0.828125 -6.140625 C 0.828125 -6.160156 0.84375 -6.203125 0.875 -6.265625 C 1.164062 -6.785156 1.582031 -7.1875 2.125 -7.46875 C 2.664062 -7.757812 3.3125 -7.90625 4.0625 -7.90625 C 5.007812 -7.90625 5.738281 -7.679688 6.25 -7.234375 C 6.757812 -6.796875 7.015625 -6.1875 7.015625 -5.40625 L 7.015625 -0.21875 C 7.015625 -0.132812 7 -0.078125 6.96875 -0.046875 C 6.9375 -0.015625 6.882812 0 6.8125 0 L 6.078125 0 C 5.960938 0 5.894531 -0.078125 5.875 -0.234375 L 5.84375 -0.90625 C 5.832031 -0.976562 5.804688 -1.015625 5.765625 -1.015625 C 5.722656 -1.015625 5.679688 -0.988281 5.640625 -0.9375 Z M 5.828125 -3.71875 C 5.828125 -3.875 5.753906 -3.953125 5.609375 -3.953125 L 4.65625 -3.859375 C 3.75 -3.804688 3.046875 -3.632812 2.546875 -3.34375 C 2.054688 -3.050781 1.8125 -2.644531 1.8125 -2.125 C 1.8125 -1.707031 1.957031 -1.375 2.25 -1.125 C 2.550781 -0.882812 2.953125 -0.765625 3.453125 -0.765625 C 3.753906 -0.765625 4.050781 -0.816406 4.34375 -0.921875 C 4.632812 -1.023438 4.894531 -1.171875 5.125 -1.359375 C 5.34375 -1.535156 5.515625 -1.722656 5.640625 -1.921875 C 5.765625 -2.117188 5.828125 -2.3125 5.828125 -2.5 Z M 5.828125 -3.71875 "/></g></g></g><g fill="#000000" fill-opacity="1"><g transform="translate(23.556931, 65.302434)"><g><path d="M 1.328125 0 C 1.191406 0 1.125 -0.0625 1.125 -0.1875 L 1.125 -7.5625 C 1.125 -7.695312 1.175781 -7.765625 1.28125 -7.765625 L 2.171875 -7.765625 C 2.273438 -7.765625 2.328125 -7.707031 2.328125 -7.59375 L 2.328125 -6.75 C 2.328125 -6.644531 2.367188 -6.628906 2.453125 -6.703125 C 3.003906 -7.128906 3.472656 -7.4375 3.859375 -7.625 C 4.242188 -7.8125 4.675781 -7.90625 5.15625 -7.90625 C 5.894531 -7.90625 6.472656 -7.703125 6.890625 -7.296875 C 7.304688 -6.898438 7.515625 -6.363281 7.515625 -5.6875 L 7.515625 -0.234375 C 7.515625 -0.078125 7.441406 0 7.296875 0 L 6.46875 0 C 6.34375 0 6.28125 -0.0625 6.28125 -0.1875 L 6.28125 -5.421875 C 6.28125 -5.910156 6.15625 -6.285156 5.90625 -6.546875 C 5.65625 -6.804688 5.273438 -6.9375 4.765625 -6.9375 C 4.347656 -6.9375 3.96875 -6.84375 3.625 -6.65625 C 3.28125 -6.476562 2.859375 -6.175781 2.359375 -5.75 L 2.359375 -0.21875 C 2.359375 -0.144531 2.335938 -0.0859375 2.296875 -0.046875 C 2.265625 -0.015625 2.210938 0 2.140625 0 Z M 1.328125 0 "/></g></g></g><g fill="#000000" fill-opacity="1"><g transform="translate(32.102626, 65.302434)"><g><path d="M 5.78125 -6.046875 C 5.570312 -6.347656 5.289062 -6.585938 4.9375 -6.765625 C 4.582031 -6.953125 4.171875 -7.046875 3.703125 -7.046875 C 3.171875 -7.046875 2.734375 -6.929688 2.390625 -6.703125 C 2.046875 -6.472656 1.875 -6.171875 1.875 -5.796875 C 1.875 -5.566406 1.957031 -5.363281 2.125 -5.1875 C 2.300781 -5.007812 2.613281 -4.851562 3.0625 -4.71875 L 4.921875 -4.15625 C 5.566406 -3.976562 6.046875 -3.71875 6.359375 -3.375 C 6.671875 -3.03125 6.828125 -2.617188 6.828125 -2.140625 C 6.828125 -1.691406 6.6875 -1.289062 6.40625 -0.9375 C 6.132812 -0.59375 5.757812 -0.328125 5.28125 -0.140625 C 4.800781 0.0429688 4.257812 0.140625 3.65625 0.140625 C 2.90625 0.140625 2.238281 -0.00390625 1.65625 -0.296875 C 1.070312 -0.597656 0.65625 -0.988281 0.40625 -1.46875 C 0.375 -1.507812 0.359375 -1.546875 0.359375 -1.578125 C 0.359375 -1.628906 0.382812 -1.671875 0.4375 -1.703125 L 1.015625 -2.015625 C 1.109375 -2.078125 1.179688 -2.070312 1.234375 -2 C 1.753906 -1.164062 2.566406 -0.75 3.671875 -0.75 C 4.242188 -0.757812 4.71875 -0.878906 5.09375 -1.109375 C 5.476562 -1.335938 5.671875 -1.632812 5.671875 -2 C 5.671875 -2.28125 5.554688 -2.507812 5.328125 -2.6875 C 5.109375 -2.875 4.742188 -3.039062 4.234375 -3.1875 L 2.71875 -3.609375 C 2.007812 -3.796875 1.5 -4.054688 1.1875 -4.390625 C 0.882812 -4.722656 0.734375 -5.128906 0.734375 -5.609375 C 0.734375 -6.054688 0.859375 -6.453125 1.109375 -6.796875 C 1.359375 -7.148438 1.707031 -7.421875 2.15625 -7.609375 C 2.613281 -7.804688 3.132812 -7.90625 3.71875 -7.90625 C 4.363281 -7.90625 4.941406 -7.78125 5.453125 -7.53125 C 5.960938 -7.289062 6.351562 -6.960938 6.625 -6.546875 C 6.695312 -6.441406 6.695312 -6.375 6.625 -6.34375 L 6 -6 C 5.957031 -5.976562 5.929688 -5.96875 5.921875 -5.96875 C 5.878906 -5.96875 5.832031 -5.992188 5.78125 -6.046875 Z M 5.78125 -6.046875 "/></g></g></g><g fill="#000000" fill-opacity="1"><g transform="translate(39.594741, 65.302434)"><g><path d="M 5.046875 -7.765625 C 5.148438 -7.765625 5.203125 -7.710938 5.203125 -7.609375 L 5.203125 -6.984375 C 5.203125 -6.898438 5.148438 -6.859375 5.046875 -6.859375 L 3.375 -6.859375 C 3.300781 -6.859375 3.265625 -6.8125 3.265625 -6.71875 L 3.265625 -0.203125 C 3.265625 -0.0664062 3.207031 0 3.09375 0 L 2.203125 0 C 2.085938 0 2.03125 -0.0625 2.03125 -0.1875 L 2.03125 -6.734375 C 2.03125 -6.816406 2 -6.859375 1.9375 -6.859375 L 0.5 -6.859375 C 0.394531 -6.859375 0.34375 -6.898438 0.34375 -6.984375 L 0.34375 -7.609375 C 0.34375 -7.710938 0.398438 -7.765625 0.515625 -7.765625 L 1.90625 -7.765625 C 1.988281 -7.765625 2.03125 -7.8125 2.03125 -7.90625 L 2.03125 -8.96875 C 2.03125 -10.226562 2.640625 -10.859375 3.859375 -10.859375 L 5.078125 -10.859375 C 5.203125 -10.859375 5.265625 -10.800781 5.265625 -10.6875 L 5.265625 -10.109375 C 5.265625 -10.015625 5.210938 -9.96875 5.109375 -9.96875 L 4.078125 -9.96875 C 3.515625 -9.96875 3.234375 -9.617188 3.234375 -8.921875 L 3.234375 -7.890625 C 3.234375 -7.804688 3.28125 -7.765625 3.375 -7.765625 Z M 5.046875 -7.765625 "/></g></g></g><g fill="#000000" fill-opacity="1"><g transform="translate(45.140663, 65.302434)"><g><path d="M 4.375 0.140625 C 3.644531 0.140625 3 -0.0234375 2.4375 -0.359375 C 1.875 -0.691406 1.4375 -1.160156 1.125 -1.765625 C 0.820312 -2.367188 0.671875 -3.054688 0.671875 -3.828125 C 0.671875 -4.617188 0.828125 -5.320312 1.140625 -5.9375 C 1.460938 -6.550781 1.90625 -7.03125 2.46875 -7.375 C 3.03125 -7.726562 3.671875 -7.90625 4.390625 -7.90625 C 5.109375 -7.90625 5.75 -7.726562 6.3125 -7.375 C 6.875 -7.03125 7.304688 -6.550781 7.609375 -5.9375 C 7.921875 -5.320312 8.078125 -4.625 8.078125 -3.84375 C 8.078125 -3.070312 7.921875 -2.382812 7.609375 -1.78125 C 7.296875 -1.175781 6.859375 -0.703125 6.296875 -0.359375 C 5.734375 -0.0234375 5.09375 0.140625 4.375 0.140625 Z M 4.40625 -0.78125 C 5.164062 -0.78125 5.757812 -1.054688 6.1875 -1.609375 C 6.613281 -2.160156 6.828125 -2.914062 6.828125 -3.875 C 6.828125 -4.832031 6.609375 -5.59375 6.171875 -6.15625 C 5.734375 -6.71875 5.140625 -7 4.390625 -7 C 3.628906 -7 3.03125 -6.71875 2.59375 -6.15625 C 2.15625 -5.59375 1.9375 -4.832031 1.9375 -3.875 C 1.9375 -2.914062 2.15625 -2.160156 2.59375 -1.609375 C 3.03125 -1.054688 3.632812 -0.78125 4.40625 -0.78125 Z M 4.40625 -0.78125 "/></g></g></g><g fill="#000000" fill-opacity="1"><g transform="translate(53.905852, 65.302434)"><g><path d="M 1.328125 0 C 1.191406 0 1.125 -0.0625 1.125 -0.1875 L 1.125 -7.5625 C 1.125 -7.695312 1.175781 -7.765625 1.28125 -7.765625 L 2.140625 -7.765625 C 2.242188 -7.765625 2.296875 -7.707031 2.296875 -7.59375 L 2.296875 -6.640625 C 2.296875 -6.585938 2.3125 -6.554688 2.34375 -6.546875 C 2.382812 -6.535156 2.421875 -6.554688 2.453125 -6.609375 C 3.203125 -7.472656 3.960938 -7.90625 4.734375 -7.90625 C 5.066406 -7.90625 5.234375 -7.84375 5.234375 -7.71875 L 5.234375 -6.84375 C 5.234375 -6.738281 5.191406 -6.695312 5.109375 -6.71875 C 4.929688 -6.75 4.710938 -6.765625 4.453125 -6.765625 C 4.171875 -6.765625 3.863281 -6.679688 3.53125 -6.515625 C 3.195312 -6.347656 2.914062 -6.128906 2.6875 -5.859375 C 2.46875 -5.597656 2.359375 -5.332031 2.359375 -5.0625 L 2.359375 -0.21875 C 2.359375 -0.0703125 2.285156 0 2.140625 0 Z M 1.328125 0 "/></g></g></g><g fill="#000000" fill-opacity="1"><g transform="translate(59.5103, 65.302434)"><g><path d="M 1.328125 0 C 1.191406 0 1.125 -0.0625 1.125 -0.1875 L 1.125 -7.5625 C 1.125 -7.695312 1.175781 -7.765625 1.28125 -7.765625 L 2.171875 -7.765625 C 2.265625 -7.765625 2.3125 -7.707031 2.3125 -7.59375 L 2.3125 -6.75 C 2.3125 -6.632812 2.359375 -6.617188 2.453125 -6.703125 C 2.984375 -7.128906 3.429688 -7.4375 3.796875 -7.625 C 4.171875 -7.8125 4.585938 -7.90625 5.046875 -7.90625 C 5.597656 -7.90625 6.050781 -7.78125 6.40625 -7.53125 C 6.757812 -7.289062 7 -6.988281 7.125 -6.625 C 7.144531 -6.59375 7.164062 -6.578125 7.1875 -6.578125 C 7.21875 -6.578125 7.265625 -6.597656 7.328125 -6.640625 C 7.835938 -7.078125 8.296875 -7.394531 8.703125 -7.59375 C 9.109375 -7.800781 9.535156 -7.90625 9.984375 -7.90625 C 10.679688 -7.90625 11.226562 -7.703125 11.625 -7.296875 C 12.019531 -6.898438 12.21875 -6.363281 12.21875 -5.6875 L 12.21875 -0.234375 C 12.21875 -0.078125 12.144531 0 12 0 L 11.1875 0 C 11.0625 0 11 -0.0625 11 -0.1875 L 11 -5.421875 C 11 -5.910156 10.878906 -6.285156 10.640625 -6.546875 C 10.410156 -6.804688 10.0625 -6.9375 9.59375 -6.9375 C 9.195312 -6.9375 8.828125 -6.84375 8.484375 -6.65625 C 8.148438 -6.46875 7.820312 -6.226562 7.5 -5.9375 C 7.414062 -5.863281 7.359375 -5.796875 7.328125 -5.734375 C 7.304688 -5.679688 7.296875 -5.609375 7.296875 -5.515625 L 7.296875 -0.234375 C 7.296875 -0.078125 7.222656 0 7.078125 0 L 6.25 0 C 6.125 0 6.0625 -0.0625 6.0625 -0.1875 L 6.0625 -5.421875 C 6.0625 -6.429688 5.59375 -6.9375 4.65625 -6.9375 C 4.257812 -6.9375 3.898438 -6.84375 3.578125 -6.65625 C 3.253906 -6.476562 2.847656 -6.175781 2.359375 -5.75 L 2.359375 -0.21875 C 2.359375 -0.144531 2.335938 -0.0859375 2.296875 -0.046875 C 2.265625 -0.015625 2.210938 0 2.140625 0 Z M 1.328125 0 "/></g></g></g><g fill="#000000" fill-opacity="1"><g transform="translate(72.76783, 65.302434)"><g><path d="M 2.421875 -9.421875 C 2.421875 -9.328125 2.398438 -9.257812 2.359375 -9.21875 C 2.316406 -9.175781 2.25 -9.15625 2.15625 -9.15625 L 1.296875 -9.15625 C 1.148438 -9.15625 1.078125 -9.238281 1.078125 -9.40625 L 1.078125 -10.625 C 1.078125 -10.78125 1.144531 -10.859375 1.28125 -10.859375 L 2.203125 -10.859375 C 2.265625 -10.859375 2.316406 -10.835938 2.359375 -10.796875 C 2.398438 -10.765625 2.421875 -10.710938 2.421875 -10.640625 Z M 2.359375 -0.25 C 2.359375 -0.15625 2.335938 -0.0859375 2.296875 -0.046875 C 2.253906 -0.015625 2.1875 0 2.09375 0 L 1.34375 0 C 1.257812 0 1.203125 -0.015625 1.171875 -0.046875 C 1.140625 -0.078125 1.125 -0.128906 1.125 -0.203125 L 1.125 -7.546875 C 1.125 -7.691406 1.179688 -7.765625 1.296875 -7.765625 L 2.203125 -7.765625 C 2.304688 -7.765625 2.359375 -7.695312 2.359375 -7.5625 Z M 2.359375 -0.25 "/></g></g></g><g fill="#000000" fill-opacity="1"><g transform="translate(76.265131, 65.302434)"><g><path d="M 1.328125 0 C 1.191406 0 1.125 -0.0625 1.125 -0.1875 L 1.125 -7.5625 C 1.125 -7.695312 1.175781 -7.765625 1.28125 -7.765625 L 2.171875 -7.765625 C 2.273438 -7.765625 2.328125 -7.707031 2.328125 -7.59375 L 2.328125 -6.75 C 2.328125 -6.644531 2.367188 -6.628906 2.453125 -6.703125 C 3.003906 -7.128906 3.472656 -7.4375 3.859375 -7.625 C 4.242188 -7.8125 4.675781 -7.90625 5.15625 -7.90625 C 5.894531 -7.90625 6.472656 -7.703125 6.890625 -7.296875 C 7.304688 -6.898438 7.515625 -6.363281 7.515625 -5.6875 L 7.515625 -0.234375 C 7.515625 -0.078125 7.441406 0 7.296875 0 L 6.46875 0 C 6.34375 0 6.28125 -0.0625 6.28125 -0.1875 L 6.28125 -5.421875 C 6.28125 -5.910156 6.15625 -6.285156 5.90625 -6.546875 C 5.65625 -6.804688 5.273438 -6.9375 4.765625 -6.9375 C 4.347656 -6.9375 3.96875 -6.84375 3.625 -6.65625 C 3.28125 -6.476562 2.859375 -6.175781 2.359375 -5.75 L 2.359375 -0.21875 C 2.359375 -0.144531 2.335938 -0.0859375 2.296875 -0.046875 C 2.265625 -0.015625 2.210938 0 2.140625 0 Z M 1.328125 0 "/></g></g></g><g fill="#000000" fill-opacity="1"><g transform="translate(84.810826, 65.302434)"><g><path d="M 8.140625 -7.890625 C 8.328125 -7.890625 8.421875 -7.8125 8.421875 -7.65625 L 8.421875 -7.140625 C 8.421875 -7.046875 8.394531 -6.972656 8.34375 -6.921875 C 8.300781 -6.878906 8.226562 -6.863281 8.125 -6.875 C 7.800781 -6.875 7.546875 -6.832031 7.359375 -6.75 C 7.128906 -6.65625 7.035156 -6.539062 7.078125 -6.40625 C 7.085938 -6.375 7.113281 -6.300781 7.15625 -6.1875 C 7.207031 -6.082031 7.242188 -5.960938 7.265625 -5.828125 C 7.296875 -5.703125 7.3125 -5.566406 7.3125 -5.421875 C 7.3125 -4.722656 7.039062 -4.15625 6.5 -3.71875 C 5.957031 -3.28125 5.171875 -3.0625 4.140625 -3.0625 C 3.453125 -3.0625 2.957031 -3 2.65625 -2.875 C 2.351562 -2.757812 2.203125 -2.613281 2.203125 -2.4375 C 2.203125 -2.28125 2.300781 -2.164062 2.5 -2.09375 C 2.707031 -2.019531 3.050781 -1.972656 3.53125 -1.953125 L 5.421875 -1.84375 C 6.253906 -1.789062 6.875 -1.585938 7.28125 -1.234375 C 7.695312 -0.890625 7.90625 -0.414062 7.90625 0.1875 C 7.90625 0.925781 7.578125 1.503906 6.921875 1.921875 C 6.273438 2.347656 5.351562 2.5625 4.15625 2.5625 C 2.914062 2.5625 1.96875 2.382812 1.3125 2.03125 C 0.664062 1.675781 0.34375 1.164062 0.34375 0.5 C 0.34375 -0.152344 0.804688 -0.707031 1.734375 -1.15625 C 1.835938 -1.207031 1.835938 -1.257812 1.734375 -1.3125 C 1.273438 -1.507812 1.046875 -1.800781 1.046875 -2.1875 C 1.046875 -2.394531 1.144531 -2.597656 1.34375 -2.796875 C 1.550781 -2.992188 1.835938 -3.15625 2.203125 -3.28125 C 2.253906 -3.289062 2.28125 -3.316406 2.28125 -3.359375 C 2.28125 -3.398438 2.253906 -3.429688 2.203125 -3.453125 C 1.773438 -3.679688 1.457031 -3.953125 1.25 -4.265625 C 1.050781 -4.585938 0.953125 -4.972656 0.953125 -5.421875 C 0.953125 -6.179688 1.238281 -6.78125 1.8125 -7.21875 C 2.382812 -7.65625 3.203125 -7.875 4.265625 -7.875 C 5.191406 -7.875 5.921875 -7.65625 6.453125 -7.21875 C 6.523438 -7.164062 6.578125 -7.140625 6.609375 -7.140625 C 6.640625 -7.140625 6.691406 -7.164062 6.765625 -7.21875 C 6.953125 -7.40625 7.164062 -7.5625 7.40625 -7.6875 C 7.65625 -7.820312 7.898438 -7.890625 8.140625 -7.890625 Z M 4.140625 -3.828125 C 4.816406 -3.828125 5.320312 -3.960938 5.65625 -4.234375 C 5.988281 -4.515625 6.15625 -4.914062 6.15625 -5.4375 C 6.15625 -5.957031 5.984375 -6.363281 5.640625 -6.65625 C 5.304688 -6.945312 4.804688 -7.09375 4.140625 -7.09375 C 3.492188 -7.09375 2.988281 -6.941406 2.625 -6.640625 C 2.269531 -6.347656 2.09375 -5.945312 2.09375 -5.4375 C 2.09375 -4.925781 2.269531 -4.53125 2.625 -4.25 C 2.976562 -3.96875 3.484375 -3.828125 4.140625 -3.828125 Z M 2.859375 -0.953125 C 2.679688 -0.960938 2.476562 -0.910156 2.25 -0.796875 C 2.03125 -0.679688 1.84375 -0.519531 1.6875 -0.3125 C 1.53125 -0.113281 1.453125 0.101562 1.453125 0.34375 C 1.453125 0.8125 1.691406 1.171875 2.171875 1.421875 C 2.648438 1.671875 3.359375 1.796875 4.296875 1.796875 C 5.941406 1.796875 6.765625 1.3125 6.765625 0.34375 C 6.765625 0 6.648438 -0.269531 6.421875 -0.46875 C 6.191406 -0.664062 5.816406 -0.78125 5.296875 -0.8125 Z M 2.859375 -0.953125 "/></g></g></g><g fill="#000000" fill-opacity="1"><g transform="translate(93.619917, 65.302434)"><g/></g></g><g fill="#000000" fill-opacity="1"><g transform="translate(96.766019, 65.302434)"><g><path d="M 0.609375 -10.703125 C 0.609375 -10.804688 0.671875 -10.859375 0.796875 -10.859375 L 8.671875 -10.859375 C 8.785156 -10.859375 8.84375 -10.804688 8.84375 -10.703125 L 8.84375 -9.9375 C 8.84375 -9.882812 8.828125 -9.847656 8.796875 -9.828125 C 8.765625 -9.804688 8.722656 -9.796875 8.671875 -9.796875 L 5.6875 -9.796875 C 5.632812 -9.796875 5.59375 -9.785156 5.5625 -9.765625 C 5.539062 -9.742188 5.53125 -9.703125 5.53125 -9.640625 L 5.53125 -0.1875 C 5.53125 -0.0625 5.472656 0 5.359375 0 L 4.296875 0 C 4.179688 0 4.125 -0.0625 4.125 -0.1875 L 4.125 -9.640625 C 4.125 -9.703125 4.113281 -9.742188 4.09375 -9.765625 C 4.070312 -9.785156 4.035156 -9.796875 3.984375 -9.796875 L 0.796875 -9.796875 C 0.734375 -9.796875 0.6875 -9.804688 0.65625 -9.828125 C 0.625 -9.847656 0.609375 -9.882812 0.609375 -9.9375 Z M 0.609375 -10.703125 "/></g></g></g><g fill="#000000" fill-opacity="1"><g transform="translate(106.204328, 65.302434)"><g><path d="M 1.328125 0 C 1.203125 0 1.140625 -0.0625 1.140625 -0.1875 L 1.140625 -10.671875 C 1.140625 -10.796875 1.191406 -10.859375 1.296875 -10.859375 L 2.171875 -10.859375 C 2.273438 -10.859375 2.328125 -10.800781 2.328125 -10.6875 L 2.328125 -6.78125 C 2.328125 -6.675781 2.367188 -6.660156 2.453125 -6.734375 C 3.015625 -7.160156 3.488281 -7.460938 3.875 -7.640625 C 4.269531 -7.816406 4.703125 -7.90625 5.171875 -7.90625 C 5.921875 -7.90625 6.5 -7.703125 6.90625 -7.296875 C 7.3125 -6.898438 7.515625 -6.363281 7.515625 -5.6875 L 7.515625 -0.234375 C 7.515625 -0.078125 7.441406 0 7.296875 0 L 6.46875 0 C 6.34375 0 6.28125 -0.0625 6.28125 -0.1875 L 6.28125 -5.421875 C 6.28125 -5.910156 6.15625 -6.285156 5.90625 -6.546875 C 5.65625 -6.804688 5.273438 -6.9375 4.765625 -6.9375 C 4.347656 -6.9375 3.972656 -6.84375 3.640625 -6.65625 C 3.304688 -6.476562 2.882812 -6.175781 2.375 -5.75 L 2.375 -0.21875 C 2.375 -0.0703125 2.296875 0 2.140625 0 Z M 1.328125 0 "/></g></g></g><g fill="#000000" fill-opacity="1"><g transform="translate(114.750023, 65.302434)"><g><path d="M 1.953125 -3.390625 C 1.953125 -2.921875 2.066406 -2.488281 2.296875 -2.09375 C 2.523438 -1.695312 2.832031 -1.378906 3.21875 -1.140625 C 3.613281 -0.910156 4.046875 -0.796875 4.515625 -0.796875 C 5.484375 -0.796875 6.242188 -1.195312 6.796875 -2 C 6.835938 -2.039062 6.867188 -2.0625 6.890625 -2.0625 C 6.921875 -2.070312 6.957031 -2.066406 7 -2.046875 L 7.609375 -1.75 C 7.691406 -1.695312 7.703125 -1.625 7.640625 -1.53125 C 7.265625 -0.945312 6.8125 -0.519531 6.28125 -0.25 C 5.75 0.0078125 5.117188 0.140625 4.390625 0.140625 C 3.679688 0.140625 3.039062 -0.0195312 2.46875 -0.34375 C 1.90625 -0.675781 1.460938 -1.144531 1.140625 -1.75 C 0.828125 -2.351562 0.671875 -3.039062 0.671875 -3.8125 C 0.671875 -4.632812 0.832031 -5.351562 1.15625 -5.96875 C 1.476562 -6.59375 1.921875 -7.070312 2.484375 -7.40625 C 3.046875 -7.738281 3.675781 -7.90625 4.375 -7.90625 C 5.082031 -7.90625 5.703125 -7.75 6.234375 -7.4375 C 6.765625 -7.125 7.175781 -6.664062 7.46875 -6.0625 C 7.757812 -5.46875 7.90625 -4.757812 7.90625 -3.9375 L 7.90625 -3.875 C 7.90625 -3.789062 7.890625 -3.722656 7.859375 -3.671875 C 7.828125 -3.628906 7.769531 -3.609375 7.6875 -3.609375 L 2.078125 -3.609375 C 1.992188 -3.609375 1.953125 -3.535156 1.953125 -3.390625 Z M 6.421875 -4.421875 C 6.535156 -4.421875 6.601562 -4.429688 6.625 -4.453125 C 6.65625 -4.484375 6.671875 -4.539062 6.671875 -4.625 C 6.671875 -5.050781 6.582031 -5.445312 6.40625 -5.8125 C 6.226562 -6.1875 5.960938 -6.484375 5.609375 -6.703125 C 5.265625 -6.921875 4.863281 -7.03125 4.40625 -7.03125 C 3.90625 -7.03125 3.46875 -6.90625 3.09375 -6.65625 C 2.726562 -6.40625 2.445312 -6.082031 2.25 -5.6875 C 2.0625 -5.289062 1.96875 -4.867188 1.96875 -4.421875 Z M 6.421875 -4.421875 "/></g></g></g><g fill="#000000" fill-opacity="1"><g transform="translate(123.251817, 65.302434)"><g/></g></g><g fill="#000000" fill-opacity="1"><g transform="translate(126.39792, 65.302434)"><g><path d="M 1.625 0 C 1.488281 0 1.421875 -0.0703125 1.421875 -0.21875 L 1.421875 -10.65625 C 1.421875 -10.738281 1.429688 -10.789062 1.453125 -10.8125 C 1.484375 -10.84375 1.53125 -10.859375 1.59375 -10.859375 L 3 -10.859375 C 3.082031 -10.859375 3.140625 -10.847656 3.171875 -10.828125 C 3.203125 -10.804688 3.226562 -10.765625 3.25 -10.703125 L 6.5 -2.3125 C 6.53125 -2.226562 6.566406 -2.1875 6.609375 -2.1875 C 6.648438 -2.1875 6.691406 -2.234375 6.734375 -2.328125 L 9.984375 -10.671875 C 10.015625 -10.796875 10.085938 -10.859375 10.203125 -10.859375 L 11.6875 -10.859375 C 11.789062 -10.859375 11.84375 -10.796875 11.84375 -10.671875 L 11.84375 -0.21875 C 11.84375 -0.0703125 11.769531 0 11.625 0 L 10.65625 0 C 10.507812 0 10.4375 -0.0625 10.4375 -0.1875 L 10.4375 -8.5625 C 10.4375 -8.613281 10.425781 -8.632812 10.40625 -8.625 C 10.394531 -8.625 10.378906 -8.601562 10.359375 -8.5625 L 7.140625 -0.1875 C 7.085938 -0.0625 6.992188 0 6.859375 0 L 6.15625 0 C 6.007812 0 5.914062 -0.0546875 5.875 -0.171875 L 2.6875 -8.484375 C 2.675781 -8.523438 2.660156 -8.546875 2.640625 -8.546875 C 2.628906 -8.546875 2.625 -8.523438 2.625 -8.484375 L 2.625 -0.1875 C 2.625 -0.125 2.609375 -0.078125 2.578125 -0.046875 C 2.546875 -0.015625 2.492188 0 2.421875 0 Z M 1.625 0 "/></g></g></g><g fill="#000000" fill-opacity="1"><g transform="translate(139.65545, 65.302434)"><g><path d="M 1.953125 -3.390625 C 1.953125 -2.921875 2.066406 -2.488281 2.296875 -2.09375 C 2.523438 -1.695312 2.832031 -1.378906 3.21875 -1.140625 C 3.613281 -0.910156 4.046875 -0.796875 4.515625 -0.796875 C 5.484375 -0.796875 6.242188 -1.195312 6.796875 -2 C 6.835938 -2.039062 6.867188 -2.0625 6.890625 -2.0625 C 6.921875 -2.070312 6.957031 -2.066406 7 -2.046875 L 7.609375 -1.75 C 7.691406 -1.695312 7.703125 -1.625 7.640625 -1.53125 C 7.265625 -0.945312 6.8125 -0.519531 6.28125 -0.25 C 5.75 0.0078125 5.117188 0.140625 4.390625 0.140625 C 3.679688 0.140625 3.039062 -0.0195312 2.46875 -0.34375 C 1.90625 -0.675781 1.460938 -1.144531 1.140625 -1.75 C 0.828125 -2.351562 0.671875 -3.039062 0.671875 -3.8125 C 0.671875 -4.632812 0.832031 -5.351562 1.15625 -5.96875 C 1.476562 -6.59375 1.921875 -7.070312 2.484375 -7.40625 C 3.046875 -7.738281 3.675781 -7.90625 4.375 -7.90625 C 5.082031 -7.90625 5.703125 -7.75 6.234375 -7.4375 C 6.765625 -7.125 7.175781 -6.664062 7.46875 -6.0625 C 7.757812 -5.46875 7.90625 -4.757812 7.90625 -3.9375 L 7.90625 -3.875 C 7.90625 -3.789062 7.890625 -3.722656 7.859375 -3.671875 C 7.828125 -3.628906 7.769531 -3.609375 7.6875 -3.609375 L 2.078125 -3.609375 C 1.992188 -3.609375 1.953125 -3.535156 1.953125 -3.390625 Z M 6.421875 -4.421875 C 6.535156 -4.421875 6.601562 -4.429688 6.625 -4.453125 C 6.65625 -4.484375 6.671875 -4.539062 6.671875 -4.625 C 6.671875 -5.050781 6.582031 -5.445312 6.40625 -5.8125 C 6.226562 -6.1875 5.960938 -6.484375 5.609375 -6.703125 C 5.265625 -6.921875 4.863281 -7.03125 4.40625 -7.03125 C 3.90625 -7.03125 3.46875 -6.90625 3.09375 -6.65625 C 2.726562 -6.40625 2.445312 -6.082031 2.25 -5.6875 C 2.0625 -5.289062 1.96875 -4.867188 1.96875 -4.421875 Z M 6.421875 -4.421875 "/></g></g></g><g fill="#000000" fill-opacity="1"><g transform="translate(148.157244, 65.302434)"><g><path d="M 6.640625 0 C 6.503906 0 6.4375 -0.0664062 6.4375 -0.203125 L 6.4375 -0.828125 C 6.4375 -0.921875 6.414062 -0.96875 6.375 -0.96875 C 6.34375 -0.96875 6.300781 -0.941406 6.25 -0.890625 C 5.957031 -0.597656 5.632812 -0.351562 5.28125 -0.15625 C 4.9375 0.0390625 4.492188 0.140625 3.953125 0.140625 C 3.328125 0.140625 2.769531 -0.00390625 2.28125 -0.296875 C 1.789062 -0.585938 1.40625 -1.023438 1.125 -1.609375 C 0.84375 -2.203125 0.703125 -2.921875 0.703125 -3.765625 C 0.703125 -4.585938 0.847656 -5.304688 1.140625 -5.921875 C 1.429688 -6.546875 1.835938 -7.03125 2.359375 -7.375 C 2.878906 -7.726562 3.46875 -7.90625 4.125 -7.90625 C 4.5625 -7.90625 4.941406 -7.835938 5.265625 -7.703125 C 5.585938 -7.566406 5.890625 -7.375 6.171875 -7.125 C 6.253906 -7.070312 6.3125 -7.046875 6.34375 -7.046875 C 6.382812 -7.046875 6.40625 -7.109375 6.40625 -7.234375 L 6.40625 -10.671875 C 6.40625 -10.796875 6.460938 -10.859375 6.578125 -10.859375 L 7.46875 -10.859375 C 7.570312 -10.859375 7.625 -10.796875 7.625 -10.671875 L 7.625 -0.234375 C 7.625 -0.148438 7.609375 -0.0859375 7.578125 -0.046875 C 7.554688 -0.015625 7.492188 0 7.390625 0 Z M 6.390625 -6.046875 C 6.078125 -6.359375 5.765625 -6.59375 5.453125 -6.75 C 5.140625 -6.914062 4.796875 -7 4.421875 -7 C 3.679688 -7 3.085938 -6.71875 2.640625 -6.15625 C 2.191406 -5.601562 1.96875 -4.820312 1.96875 -3.8125 C 1.96875 -2.78125 2.1875 -2.007812 2.625 -1.5 C 3.070312 -1 3.640625 -0.75 4.328125 -0.75 C 4.710938 -0.75 5.0625 -0.835938 5.375 -1.015625 C 5.695312 -1.191406 5.945312 -1.414062 6.125 -1.6875 C 6.300781 -1.96875 6.390625 -2.242188 6.390625 -2.515625 Z M 6.390625 -6.046875 "/></g></g></g><g fill="#000000" fill-opacity="1"><g transform="translate(156.922433, 65.302434)"><g><path d="M 2.421875 -9.421875 C 2.421875 -9.328125 2.398438 -9.257812 2.359375 -9.21875 C 2.316406 -9.175781 2.25 -9.15625 2.15625 -9.15625 L 1.296875 -9.15625 C 1.148438 -9.15625 1.078125 -9.238281 1.078125 -9.40625 L 1.078125 -10.625 C 1.078125 -10.78125 1.144531 -10.859375 1.28125 -10.859375 L 2.203125 -10.859375 C 2.265625 -10.859375 2.316406 -10.835938 2.359375 -10.796875 C 2.398438 -10.765625 2.421875 -10.710938 2.421875 -10.640625 Z M 2.359375 -0.25 C 2.359375 -0.15625 2.335938 -0.0859375 2.296875 -0.046875 C 2.253906 -0.015625 2.1875 0 2.09375 0 L 1.34375 0 C 1.257812 0 1.203125 -0.015625 1.171875 -0.046875 C 1.140625 -0.078125 1.125 -0.128906 1.125 -0.203125 L 1.125 -7.546875 C 1.125 -7.691406 1.179688 -7.765625 1.296875 -7.765625 L 2.203125 -7.765625 C 2.304688 -7.765625 2.359375 -7.695312 2.359375 -7.5625 Z M 2.359375 -0.25 "/></g></g></g><g fill="#000000" fill-opacity="1"><g transform="translate(160.419734, 65.302434)"><g><path d="M 4.34375 -7.90625 C 5.0625 -7.90625 5.671875 -7.738281 6.171875 -7.40625 C 6.671875 -7.070312 7.070312 -6.632812 7.375 -6.09375 L 7.40625 -5.96875 C 7.40625 -5.914062 7.375 -5.882812 7.3125 -5.875 L 6.5 -5.6875 L 6.453125 -5.671875 C 6.410156 -5.671875 6.363281 -5.707031 6.3125 -5.78125 C 6 -6.195312 5.695312 -6.503906 5.40625 -6.703125 C 5.125 -6.898438 4.796875 -7 4.421875 -7 C 3.660156 -7 3.054688 -6.71875 2.609375 -6.15625 C 2.160156 -5.59375 1.9375 -4.832031 1.9375 -3.875 C 1.9375 -2.914062 2.160156 -2.15625 2.609375 -1.59375 C 3.066406 -1.039062 3.679688 -0.765625 4.453125 -0.765625 C 4.910156 -0.765625 5.3125 -0.875 5.65625 -1.09375 C 6 -1.320312 6.316406 -1.671875 6.609375 -2.140625 C 6.628906 -2.179688 6.65625 -2.203125 6.6875 -2.203125 C 6.71875 -2.210938 6.753906 -2.210938 6.796875 -2.203125 L 7.421875 -1.96875 C 7.492188 -1.9375 7.515625 -1.867188 7.484375 -1.765625 C 7.179688 -1.203125 6.765625 -0.742188 6.234375 -0.390625 C 5.710938 -0.0351562 5.082031 0.140625 4.34375 0.140625 C 3.632812 0.140625 3 -0.0234375 2.4375 -0.359375 C 1.882812 -0.691406 1.453125 -1.160156 1.140625 -1.765625 C 0.828125 -2.367188 0.671875 -3.0625 0.671875 -3.84375 C 0.671875 -4.625 0.828125 -5.320312 1.140625 -5.9375 C 1.453125 -6.5625 1.890625 -7.046875 2.453125 -7.390625 C 3.015625 -7.734375 3.644531 -7.90625 4.34375 -7.90625 Z M 4.34375 -7.90625 "/></g></g></g><g fill="#000000" fill-opacity="1"><g transform="translate(168.350836, 65.302434)"><g><path d="M 5.640625 -0.9375 C 4.890625 -0.21875 4.019531 0.140625 3.03125 0.140625 C 2.269531 0.140625 1.671875 -0.0507812 1.234375 -0.4375 C 0.796875 -0.820312 0.578125 -1.332031 0.578125 -1.96875 C 0.578125 -2.75 0.90625 -3.363281 1.5625 -3.8125 C 2.226562 -4.269531 3.1875 -4.535156 4.4375 -4.609375 L 5.578125 -4.703125 C 5.742188 -4.722656 5.828125 -4.796875 5.828125 -4.921875 L 5.828125 -5.3125 C 5.828125 -5.84375 5.660156 -6.257812 5.328125 -6.5625 C 5.003906 -6.875 4.566406 -7.03125 4.015625 -7.03125 C 3.148438 -7.03125 2.445312 -6.640625 1.90625 -5.859375 C 1.875 -5.804688 1.84375 -5.769531 1.8125 -5.75 C 1.78125 -5.738281 1.742188 -5.742188 1.703125 -5.765625 L 0.90625 -6.03125 C 0.851562 -6.050781 0.828125 -6.085938 0.828125 -6.140625 C 0.828125 -6.160156 0.84375 -6.203125 0.875 -6.265625 C 1.164062 -6.785156 1.582031 -7.1875 2.125 -7.46875 C 2.664062 -7.757812 3.3125 -7.90625 4.0625 -7.90625 C 5.007812 -7.90625 5.738281 -7.679688 6.25 -7.234375 C 6.757812 -6.796875 7.015625 -6.1875 7.015625 -5.40625 L 7.015625 -0.21875 C 7.015625 -0.132812 7 -0.078125 6.96875 -0.046875 C 6.9375 -0.015625 6.882812 0 6.8125 0 L 6.078125 0 C 5.960938 0 5.894531 -0.078125 5.875 -0.234375 L 5.84375 -0.90625 C 5.832031 -0.976562 5.804688 -1.015625 5.765625 -1.015625 C 5.722656 -1.015625 5.679688 -0.988281 5.640625 -0.9375 Z M 5.828125 -3.71875 C 5.828125 -3.875 5.753906 -3.953125 5.609375 -3.953125 L 4.65625 -3.859375 C 3.75 -3.804688 3.046875 -3.632812 2.546875 -3.34375 C 2.054688 -3.050781 1.8125 -2.644531 1.8125 -2.125 C 1.8125 -1.707031 1.957031 -1.375 2.25 -1.125 C 2.550781 -0.882812 2.953125 -0.765625 3.453125 -0.765625 C 3.753906 -0.765625 4.050781 -0.816406 4.34375 -0.921875 C 4.632812 -1.023438 4.894531 -1.171875 5.125 -1.359375 C 5.34375 -1.535156 5.515625 -1.722656 5.640625 -1.921875 C 5.765625 -2.117188 5.828125 -2.3125 5.828125 -2.5 Z M 5.828125 -3.71875 "/></g></g></g><g fill="#000000" fill-opacity="1"><g transform="translate(176.369741, 65.302434)"><g><path d="M 2.375 -0.25 C 2.375 -0.15625 2.351562 -0.0859375 2.3125 -0.046875 C 2.269531 -0.015625 2.203125 0 2.109375 0 L 1.34375 0 C 1.257812 0 1.203125 -0.015625 1.171875 -0.046875 C 1.140625 -0.078125 1.125 -0.128906 1.125 -0.203125 L 1.140625 -10.65625 C 1.140625 -10.789062 1.195312 -10.859375 1.3125 -10.859375 L 2.203125 -10.859375 C 2.316406 -10.859375 2.375 -10.796875 2.375 -10.671875 Z M 2.375 -0.25 "/></g></g></g><g fill="#000000" fill-opacity="1"><g transform="translate(179.867042, 65.302434)"><g/></g></g><g fill="#000000" fill-opacity="1"><g transform="translate(183.013144, 65.302434)"><g><path d="M 5.53125 -11.015625 C 6.175781 -11.015625 6.789062 -10.875 7.375 -10.59375 C 7.957031 -10.320312 8.4375 -9.957031 8.8125 -9.5 C 9.195312 -9.039062 9.425781 -8.546875 9.5 -8.015625 L 9.515625 -7.90625 C 9.515625 -7.863281 9.5 -7.832031 9.46875 -7.8125 C 9.445312 -7.789062 9.425781 -7.78125 9.40625 -7.78125 L 8.296875 -7.703125 L 8.265625 -7.703125 C 8.242188 -7.703125 8.222656 -7.710938 8.203125 -7.734375 C 8.179688 -7.765625 8.164062 -7.800781 8.15625 -7.84375 C 8.007812 -8.476562 7.707031 -8.984375 7.25 -9.359375 C 6.789062 -9.742188 6.234375 -9.9375 5.578125 -9.9375 C 4.554688 -9.9375 3.773438 -9.554688 3.234375 -8.796875 C 2.691406 -8.046875 2.421875 -6.921875 2.421875 -5.421875 C 2.421875 -3.941406 2.691406 -2.828125 3.234375 -2.078125 C 3.773438 -1.335938 4.582031 -0.96875 5.65625 -0.96875 C 6.34375 -0.96875 6.914062 -1.132812 7.375 -1.46875 C 7.84375 -1.800781 8.21875 -2.332031 8.5 -3.0625 C 8.519531 -3.125 8.582031 -3.144531 8.6875 -3.125 L 9.546875 -2.90625 C 9.609375 -2.894531 9.632812 -2.828125 9.625 -2.703125 C 9.476562 -2.210938 9.222656 -1.75 8.859375 -1.3125 C 8.492188 -0.882812 8.03125 -0.535156 7.46875 -0.265625 C 6.914062 0.00390625 6.289062 0.140625 5.59375 0.140625 C 4.625 0.140625 3.789062 -0.0820312 3.09375 -0.53125 C 2.40625 -0.976562 1.875 -1.617188 1.5 -2.453125 C 1.132812 -3.296875 0.953125 -4.296875 0.953125 -5.453125 C 0.953125 -6.597656 1.132812 -7.585938 1.5 -8.421875 C 1.863281 -9.253906 2.390625 -9.894531 3.078125 -10.34375 C 3.765625 -10.789062 4.582031 -11.015625 5.53125 -11.015625 Z M 5.53125 -11.015625 "/></g></g></g><g fill="#000000" fill-opacity="1"><g transform="translate(193.358704, 65.302434)"><g><path d="M 4.375 0.140625 C 3.644531 0.140625 3 -0.0234375 2.4375 -0.359375 C 1.875 -0.691406 1.4375 -1.160156 1.125 -1.765625 C 0.820312 -2.367188 0.671875 -3.054688 0.671875 -3.828125 C 0.671875 -4.617188 0.828125 -5.320312 1.140625 -5.9375 C 1.460938 -6.550781 1.90625 -7.03125 2.46875 -7.375 C 3.03125 -7.726562 3.671875 -7.90625 4.390625 -7.90625 C 5.109375 -7.90625 5.75 -7.726562 6.3125 -7.375 C 6.875 -7.03125 7.304688 -6.550781 7.609375 -5.9375 C 7.921875 -5.320312 8.078125 -4.625 8.078125 -3.84375 C 8.078125 -3.070312 7.921875 -2.382812 7.609375 -1.78125 C 7.296875 -1.175781 6.859375 -0.703125 6.296875 -0.359375 C 5.734375 -0.0234375 5.09375 0.140625 4.375 0.140625 Z M 4.40625 -0.78125 C 5.164062 -0.78125 5.757812 -1.054688 6.1875 -1.609375 C 6.613281 -2.160156 6.828125 -2.914062 6.828125 -3.875 C 6.828125 -4.832031 6.609375 -5.59375 6.171875 -6.15625 C 5.734375 -6.71875 5.140625 -7 4.390625 -7 C 3.628906 -7 3.03125 -6.71875 2.59375 -6.15625 C 2.15625 -5.59375 1.9375 -4.832031 1.9375 -3.875 C 1.9375 -2.914062 2.15625 -2.160156 2.59375 -1.609375 C 3.03125 -1.054688 3.632812 -0.78125 4.40625 -0.78125 Z M 4.40625 -0.78125 "/></g></g></g><g fill="#000000" fill-opacity="1"><g transform="translate(202.123893, 65.302434)"><g><path d="M 1.328125 0 C 1.191406 0 1.125 -0.0625 1.125 -0.1875 L 1.125 -7.5625 C 1.125 -7.695312 1.175781 -7.765625 1.28125 -7.765625 L 2.171875 -7.765625 C 2.265625 -7.765625 2.3125 -7.707031 2.3125 -7.59375 L 2.3125 -6.75 C 2.3125 -6.632812 2.359375 -6.617188 2.453125 -6.703125 C 2.984375 -7.128906 3.429688 -7.4375 3.796875 -7.625 C 4.171875 -7.8125 4.585938 -7.90625 5.046875 -7.90625 C 5.597656 -7.90625 6.050781 -7.78125 6.40625 -7.53125 C 6.757812 -7.289062 7 -6.988281 7.125 -6.625 C 7.144531 -6.59375 7.164062 -6.578125 7.1875 -6.578125 C 7.21875 -6.578125 7.265625 -6.597656 7.328125 -6.640625 C 7.835938 -7.078125 8.296875 -7.394531 8.703125 -7.59375 C 9.109375 -7.800781 9.535156 -7.90625 9.984375 -7.90625 C 10.679688 -7.90625 11.226562 -7.703125 11.625 -7.296875 C 12.019531 -6.898438 12.21875 -6.363281 12.21875 -5.6875 L 12.21875 -0.234375 C 12.21875 -0.078125 12.144531 0 12 0 L 11.1875 0 C 11.0625 0 11 -0.0625 11 -0.1875 L 11 -5.421875 C 11 -5.910156 10.878906 -6.285156 10.640625 -6.546875 C 10.410156 -6.804688 10.0625 -6.9375 9.59375 -6.9375 C 9.195312 -6.9375 8.828125 -6.84375 8.484375 -6.65625 C 8.148438 -6.46875 7.820312 -6.226562 7.5 -5.9375 C 7.414062 -5.863281 7.359375 -5.796875 7.328125 -5.734375 C 7.304688 -5.679688 7.296875 -5.609375 7.296875 -5.515625 L 7.296875 -0.234375 C 7.296875 -0.078125 7.222656 0 7.078125 0 L 6.25 0 C 6.125 0 6.0625 -0.0625 6.0625 -0.1875 L 6.0625 -5.421875 C 6.0625 -6.429688 5.59375 -6.9375 4.65625 -6.9375 C 4.257812 -6.9375 3.898438 -6.84375 3.578125 -6.65625 C 3.253906 -6.476562 2.847656 -6.175781 2.359375 -5.75 L 2.359375 -0.21875 C 2.359375 -0.144531 2.335938 -0.0859375 2.296875 -0.046875 C 2.265625 -0.015625 2.210938 0 2.140625 0 Z M 1.328125 0 "/></g></g></g><g fill="#000000" fill-opacity="1"><g transform="translate(215.381423, 65.302434)"><g><path d="M 1.328125 0 C 1.191406 0 1.125 -0.0625 1.125 -0.1875 L 1.125 -7.5625 C 1.125 -7.695312 1.175781 -7.765625 1.28125 -7.765625 L 2.171875 -7.765625 C 2.265625 -7.765625 2.3125 -7.707031 2.3125 -7.59375 L 2.3125 -6.75 C 2.3125 -6.632812 2.359375 -6.617188 2.453125 -6.703125 C 2.984375 -7.128906 3.429688 -7.4375 3.796875 -7.625 C 4.171875 -7.8125 4.585938 -7.90625 5.046875 -7.90625 C 5.597656 -7.90625 6.050781 -7.78125 6.40625 -7.53125 C 6.757812 -7.289062 7 -6.988281 7.125 -6.625 C 7.144531 -6.59375 7.164062 -6.578125 7.1875 -6.578125 C 7.21875 -6.578125 7.265625 -6.597656 7.328125 -6.640625 C 7.835938 -7.078125 8.296875 -7.394531 8.703125 -7.59375 C 9.109375 -7.800781 9.535156 -7.90625 9.984375 -7.90625 C 10.679688 -7.90625 11.226562 -7.703125 11.625 -7.296875 C 12.019531 -6.898438 12.21875 -6.363281 12.21875 -5.6875 L 12.21875 -0.234375 C 12.21875 -0.078125 12.144531 0 12 0 L 11.1875 0 C 11.0625 0 11 -0.0625 11 -0.1875 L 11 -5.421875 C 11 -5.910156 10.878906 -6.285156 10.640625 -6.546875 C 10.410156 -6.804688 10.0625 -6.9375 9.59375 -6.9375 C 9.195312 -6.9375 8.828125 -6.84375 8.484375 -6.65625 C 8.148438 -6.46875 7.820312 -6.226562 7.5 -5.9375 C 7.414062 -5.863281 7.359375 -5.796875 7.328125 -5.734375 C 7.304688 -5.679688 7.296875 -5.609375 7.296875 -5.515625 L 7.296875 -0.234375 C 7.296875 -0.078125 7.222656 0 7.078125 0 L 6.25 0 C 6.125 0 6.0625 -0.0625 6.0625 -0.1875 L 6.0625 -5.421875 C 6.0625 -6.429688 5.59375 -6.9375 4.65625 -6.9375 C 4.257812 -6.9375 3.898438 -6.84375 3.578125 -6.65625 C 3.253906 -6.476562 2.847656 -6.175781 2.359375 -5.75 L 2.359375 -0.21875 C 2.359375 -0.144531 2.335938 -0.0859375 2.296875 -0.046875 C 2.265625 -0.015625 2.210938 0 2.140625 0 Z M 1.328125 0 "/></g></g></g><g fill="#000000" fill-opacity="1"><g transform="translate(228.638954, 65.302434)"><g><path d="M 3.765625 -0.8125 C 4.160156 -0.8125 4.550781 -0.921875 4.9375 -1.140625 C 5.320312 -1.367188 5.71875 -1.6875 6.125 -2.09375 L 6.125 -7.546875 C 6.125 -7.691406 6.203125 -7.765625 6.359375 -7.765625 L 7.15625 -7.765625 C 7.289062 -7.765625 7.359375 -7.691406 7.359375 -7.546875 L 7.328125 -0.1875 C 7.328125 -0.0625 7.273438 0 7.171875 0 L 6.328125 0 C 6.210938 0 6.15625 -0.0507812 6.15625 -0.15625 L 6.15625 -1.03125 C 6.15625 -1.144531 6.113281 -1.15625 6.03125 -1.0625 C 5.5 -0.613281 5.03125 -0.300781 4.625 -0.125 C 4.21875 0.0507812 3.800781 0.140625 3.375 0.140625 C 2.6875 0.140625 2.125 -0.0625 1.6875 -0.46875 C 1.25 -0.875 1.03125 -1.414062 1.03125 -2.09375 L 1.03125 -7.546875 C 1.03125 -7.691406 1.101562 -7.765625 1.25 -7.765625 L 2.0625 -7.765625 C 2.1875 -7.765625 2.25 -7.691406 2.25 -7.546875 L 2.25 -2.421875 C 2.25 -1.929688 2.382812 -1.539062 2.65625 -1.25 C 2.925781 -0.957031 3.296875 -0.8125 3.765625 -0.8125 Z M 3.765625 -0.8125 "/></g></g></g><g fill="#000000" fill-opacity="1"><g transform="translate(237.111484, 65.302434)"><g><path d="M 1.328125 0 C 1.191406 0 1.125 -0.0625 1.125 -0.1875 L 1.125 -7.5625 C 1.125 -7.695312 1.175781 -7.765625 1.28125 -7.765625 L 2.171875 -7.765625 C 2.273438 -7.765625 2.328125 -7.707031 2.328125 -7.59375 L 2.328125 -6.75 C 2.328125 -6.644531 2.367188 -6.628906 2.453125 -6.703125 C 3.003906 -7.128906 3.472656 -7.4375 3.859375 -7.625 C 4.242188 -7.8125 4.675781 -7.90625 5.15625 -7.90625 C 5.894531 -7.90625 6.472656 -7.703125 6.890625 -7.296875 C 7.304688 -6.898438 7.515625 -6.363281 7.515625 -5.6875 L 7.515625 -0.234375 C 7.515625 -0.078125 7.441406 0 7.296875 0 L 6.46875 0 C 6.34375 0 6.28125 -0.0625 6.28125 -0.1875 L 6.28125 -5.421875 C 6.28125 -5.910156 6.15625 -6.285156 5.90625 -6.546875 C 5.65625 -6.804688 5.273438 -6.9375 4.765625 -6.9375 C 4.347656 -6.9375 3.96875 -6.84375 3.625 -6.65625 C 3.28125 -6.476562 2.859375 -6.175781 2.359375 -5.75 L 2.359375 -0.21875 C 2.359375 -0.144531 2.335938 -0.0859375 2.296875 -0.046875 C 2.265625 -0.015625 2.210938 0 2.140625 0 Z M 1.328125 0 "/></g></g></g><g fill="#000000" fill-opacity="1"><g transform="translate(245.65718, 65.302434)"><g><path d="M 2.421875 -9.421875 C 2.421875 -9.328125 2.398438 -9.257812 2.359375 -9.21875 C 2.316406 -9.175781 2.25 -9.15625 2.15625 -9.15625 L 1.296875 -9.15625 C 1.148438 -9.15625 1.078125 -9.238281 1.078125 -9.40625 L 1.078125 -10.625 C 1.078125 -10.78125 1.144531 -10.859375 1.28125 -10.859375 L 2.203125 -10.859375 C 2.265625 -10.859375 2.316406 -10.835938 2.359375 -10.796875 C 2.398438 -10.765625 2.421875 -10.710938 2.421875 -10.640625 Z M 2.359375 -0.25 C 2.359375 -0.15625 2.335938 -0.0859375 2.296875 -0.046875 C 2.253906 -0.015625 2.1875 0 2.09375 0 L 1.34375 0 C 1.257812 0 1.203125 -0.015625 1.171875 -0.046875 C 1.140625 -0.078125 1.125 -0.128906 1.125 -0.203125 L 1.125 -7.546875 C 1.125 -7.691406 1.179688 -7.765625 1.296875 -7.765625 L 2.203125 -7.765625 C 2.304688 -7.765625 2.359375 -7.695312 2.359375 -7.5625 Z M 2.359375 -0.25 "/></g></g></g><g fill="#000000" fill-opacity="1"><g transform="translate(249.154493, 65.302434)"><g><path d="M 3.171875 -6.859375 C 3.097656 -6.859375 3.0625 -6.8125 3.0625 -6.71875 L 3.0625 -2.078125 C 3.0625 -1.640625 3.132812 -1.335938 3.28125 -1.171875 C 3.425781 -1.003906 3.664062 -0.921875 4 -0.921875 L 5 -0.921875 C 5.113281 -0.921875 5.171875 -0.867188 5.171875 -0.765625 L 5.15625 -0.265625 C 5.15625 -0.160156 5.097656 -0.0976562 4.984375 -0.078125 C 4.722656 -0.0234375 4.265625 0 3.609375 0 C 2.984375 0 2.53125 -0.140625 2.25 -0.421875 C 1.96875 -0.710938 1.828125 -1.171875 1.828125 -1.796875 L 1.828125 -6.6875 C 1.828125 -6.800781 1.78125 -6.859375 1.6875 -6.859375 L 0.515625 -6.859375 C 0.398438 -6.859375 0.34375 -6.90625 0.34375 -7 L 0.34375 -7.609375 C 0.34375 -7.710938 0.394531 -7.765625 0.5 -7.765625 L 1.75 -7.765625 C 1.8125 -7.765625 1.84375 -7.800781 1.84375 -7.875 L 2 -10.203125 C 2 -10.328125 2.054688 -10.390625 2.171875 -10.390625 L 2.90625 -10.390625 C 3.019531 -10.390625 3.078125 -10.320312 3.078125 -10.1875 L 3.078125 -7.875 C 3.078125 -7.800781 3.113281 -7.765625 3.1875 -7.765625 L 5.03125 -7.765625 C 5.144531 -7.765625 5.203125 -7.71875 5.203125 -7.625 L 5.203125 -7 C 5.203125 -6.90625 5.144531 -6.859375 5.03125 -6.859375 Z M 3.171875 -6.859375 "/></g></g></g><g fill="#000000" fill-opacity="1"><g transform="translate(254.817468, 65.302434)"><g><path d="M 1.546875 2.421875 C 1.210938 2.421875 0.976562 2.410156 0.84375 2.390625 C 0.71875 2.367188 0.65625 2.3125 0.65625 2.21875 L 0.65625 1.65625 C 0.65625 1.582031 0.679688 1.53125 0.734375 1.5 C 0.785156 1.476562 0.894531 1.46875 1.0625 1.46875 L 1.984375 1.46875 C 2.222656 1.46875 2.4375 1.378906 2.625 1.203125 C 2.820312 1.035156 2.976562 0.820312 3.09375 0.5625 C 3.207031 0.3125 3.265625 0.0703125 3.265625 -0.15625 C 3.265625 -0.300781 3.242188 -0.421875 3.203125 -0.515625 L 0.40625 -7.515625 C 0.394531 -7.535156 0.390625 -7.5625 0.390625 -7.59375 C 0.390625 -7.707031 0.453125 -7.765625 0.578125 -7.765625 L 1.484375 -7.765625 C 1.585938 -7.765625 1.664062 -7.707031 1.71875 -7.59375 L 3.890625 -1.921875 C 3.921875 -1.828125 3.960938 -1.78125 4.015625 -1.78125 C 4.066406 -1.78125 4.113281 -1.84375 4.15625 -1.96875 L 6.3125 -7.59375 C 6.363281 -7.707031 6.429688 -7.765625 6.515625 -7.765625 L 7.203125 -7.765625 C 7.265625 -7.765625 7.304688 -7.738281 7.328125 -7.6875 C 7.359375 -7.644531 7.363281 -7.597656 7.34375 -7.546875 L 4.125 0.6875 C 3.863281 1.351562 3.535156 1.804688 3.140625 2.046875 C 2.753906 2.296875 2.222656 2.421875 1.546875 2.421875 Z M 1.546875 2.421875 "/></g></g></g></g></g></svg>